<svg width="252" height="53" viewBox="0 0 252 53" fill="none" xmlns="http://www.w3.org/2000/svg">
<path d="M176.284 1.06696L205.749 52.1003H146.82L153.05 41.311H187.061L176.284 22.6456L171.758 30.4858H159.299L176.284 1.06696Z" fill="#1A91FF"/>
<path d="M0 52.1055L19.2321 0.894517H35.2588L54.4909 52.1055H40.2532L37.1969 43.2349H16.7722L13.7159 52.1055H0ZM19.9775 33.2461H33.917L30.2644 22.4374C30.0656 21.8908 29.8172 21.2199 29.519 20.4248C29.2705 19.5799 28.9972 18.7103 28.699 17.8158C28.4505 16.8715 28.2021 15.9273 27.9536 14.9831C27.7051 14.0389 27.4566 13.2189 27.2082 12.5232H26.6864C26.4876 13.4674 26.1894 14.5359 25.7918 15.7286C25.444 16.9212 25.0713 18.1139 24.6737 19.3066C24.3258 20.4993 24.0028 21.5429 23.7046 22.4374L19.9775 33.2461Z" fill="#1A91FF"/>
<path d="M67.3169 52.1055V11.8523H50.6938V0.894517H97.2831V11.8523H80.6601V52.1055H67.3169Z" fill="#1A91FF"/>
<path d="M104.797 52.1055V0.894517H118.141V41.1477H144.156V52.1055H104.797Z" fill="#1A91FF"/>
<path d="M228.975 53C225.745 53 222.714 52.7018 219.881 52.1055C217.049 51.5588 214.539 50.6395 212.352 49.3474C210.215 48.0553 208.526 46.3657 207.283 44.2785C206.041 42.1416 205.42 39.5326 205.42 36.4515C205.42 36.2527 205.42 36.0291 205.42 35.7806C205.42 35.5321 205.445 35.3333 205.494 35.1842H218.39C218.39 35.3333 218.365 35.5321 218.316 35.7806C218.316 35.9794 218.316 36.1533 218.316 36.3024C218.316 37.8926 218.713 39.1847 219.508 40.1786C220.353 41.1228 221.521 41.8186 223.012 42.2658C224.503 42.6634 226.242 42.8622 228.23 42.8622C229.323 42.8622 230.342 42.8125 231.286 42.7131C232.23 42.6137 233.075 42.4398 233.821 42.1913C234.566 41.9428 235.212 41.6446 235.759 41.2968C236.355 40.8992 236.778 40.4519 237.026 39.955C237.324 39.4083 237.473 38.7872 237.473 38.0914C237.473 36.9484 237.026 36.0042 236.132 35.2588C235.287 34.5134 234.119 33.8922 232.628 33.3952C231.187 32.8983 229.547 32.4262 227.708 31.9789C225.869 31.5316 223.956 31.0595 221.968 30.5626C219.981 30.0656 218.067 29.4444 216.229 28.699C214.39 27.9536 212.725 27.0094 211.234 25.8664C209.793 24.7234 208.625 23.3071 207.731 21.6174C206.886 19.8781 206.463 17.7909 206.463 15.3558C206.463 12.6723 207.035 10.3615 208.178 8.42335C209.321 6.43554 210.886 4.82044 212.874 3.57806C214.912 2.33568 217.247 1.44116 219.881 0.894517C222.515 0.298172 225.323 0 228.304 0C231.237 0 233.97 0.298172 236.504 0.894517C239.088 1.49086 241.374 2.43507 243.362 3.72715C245.35 4.96953 246.891 6.55978 247.984 8.49789C249.127 10.3863 249.723 12.6723 249.773 15.3558V16.2504H236.951V15.7286C236.951 14.5856 236.628 13.5917 235.982 12.7468C235.386 11.8523 234.467 11.1566 233.224 10.6596C231.982 10.113 230.441 9.83966 228.603 9.83966C226.764 9.83966 225.199 10.0136 223.906 10.3615C222.664 10.7093 221.695 11.2063 220.999 11.8523C220.353 12.4984 220.03 13.2686 220.03 14.1632C220.03 15.2564 220.453 16.151 221.297 16.8467C222.192 17.5424 223.385 18.1388 224.876 18.6357C226.366 19.1327 228.031 19.6048 229.87 20.052C231.709 20.4496 233.597 20.8969 235.535 21.3938C237.523 21.8411 239.436 22.4374 241.275 23.1828C243.114 23.8786 244.778 24.7979 246.269 25.9409C247.76 27.0342 248.928 28.4008 249.773 30.0408C250.667 31.6807 251.115 33.6685 251.115 36.0042C251.115 40.0792 250.146 43.3591 248.207 45.8439C246.319 48.3286 243.685 50.1425 240.306 51.2855C236.976 52.4285 233.199 53 228.975 53Z" fill="#1A91FF"/>
</svg>
