<svg width="240" height="54" viewBox="0 0 240 54" fill="none" xmlns="http://www.w3.org/2000/svg">
<path d="M30.6869 0L61.3737 53.1512H0L6.48771 41.9142H41.9106L30.6869 22.4741L25.9725 30.6397H12.997L30.6869 0Z" fill="#1A91FF"/>
<path d="M75.6069 42.9085L88.2412 9.26608H98.7698L111.404 42.9085H102.051L100.043 37.0811H86.6252L84.6174 42.9085H75.6069ZM88.7309 30.5191H97.8883L95.4888 23.4184C95.3582 23.0593 95.195 22.6186 94.9991 22.0962C94.8359 21.5413 94.6563 20.9699 94.4604 20.3823C94.2972 19.762 94.134 19.1417 93.9707 18.5214C93.8075 17.9011 93.6443 17.3625 93.481 16.9054H93.1382C93.0076 17.5257 92.8118 18.2276 92.5506 19.0111C92.3221 19.7947 92.0772 20.5782 91.816 21.3617C91.5875 22.1452 91.3753 22.8308 91.1794 23.4184L88.7309 30.5191Z" fill="white"/>
<path d="M119.83 42.9085V16.4647H108.91V9.26608H139.516V16.4647H128.596V42.9085H119.83Z" fill="white"/>
<path d="M144.452 42.9085V9.26608H153.218V35.7099H170.309V42.9085H144.452Z" fill="white"/>
<path d="M171.682 42.9085L184.316 9.26608H194.845L207.479 42.9085H198.126L196.118 37.0811H182.7L180.693 42.9085H171.682ZM184.806 30.5191H193.963L191.564 23.4184C191.433 23.0593 191.27 22.6186 191.074 22.0962C190.911 21.5413 190.731 20.9699 190.536 20.3823C190.372 19.762 190.209 19.1417 190.046 18.5214C189.883 17.9011 189.719 17.3625 189.556 16.9054H189.213C189.083 17.5257 188.887 18.2276 188.626 19.0111C188.397 19.7947 188.152 20.5782 187.891 21.3617C187.663 22.1452 187.45 22.8308 187.255 23.4184L184.806 30.5191Z" fill="white"/>
<path d="M225.456 43.4962C223.334 43.4962 221.342 43.3003 219.481 42.9085C217.621 42.5494 215.972 41.9455 214.535 41.0966C213.132 40.2478 212.022 39.1378 211.206 37.7667C210.389 36.3629 209.981 34.6489 209.981 32.6248C209.981 32.4942 209.981 32.3473 209.981 32.1841C209.981 32.0209 209.998 31.8903 210.03 31.7923H218.502C218.502 31.8903 218.486 32.0209 218.453 32.1841C218.453 32.3147 218.453 32.4289 218.453 32.5269C218.453 33.5716 218.714 34.4204 219.237 35.0733C219.792 35.6936 220.559 36.1507 221.538 36.4445C222.518 36.7057 223.66 36.8363 224.966 36.8363C225.684 36.8363 226.354 36.8036 226.974 36.7383C227.594 36.673 228.149 36.5588 228.639 36.3955C229.129 36.2323 229.553 36.0364 229.912 35.8079C230.304 35.5467 230.581 35.2529 230.745 34.9264C230.94 34.5673 231.038 34.1592 231.038 33.7022C231.038 32.9513 230.745 32.331 230.157 31.8413C229.602 31.3516 228.835 30.9435 227.855 30.617C226.909 30.2906 225.831 29.9804 224.623 29.6866C223.415 29.3928 222.159 29.0827 220.853 28.7562C219.547 28.4297 218.29 28.0216 217.082 27.5319C215.874 27.0422 214.78 26.4219 213.801 25.6711C212.854 24.9202 212.087 23.9898 211.499 22.8798C210.944 21.7371 210.667 20.366 210.667 18.7663C210.667 17.0034 211.042 15.4853 211.793 14.2121C212.544 12.9062 213.572 11.8452 214.878 11.029C216.217 10.2128 217.751 9.6252 219.481 9.26608C221.212 8.87432 223.056 8.67844 225.015 8.67844C226.941 8.67844 228.737 8.87432 230.402 9.26608C232.099 9.65784 233.601 10.2781 234.907 11.1269C236.213 11.9431 237.225 12.9878 237.943 14.261C238.694 15.5016 239.086 17.0034 239.118 18.7663V19.3539H230.696V19.0111C230.696 18.2603 230.483 17.6073 230.059 17.0523C229.667 16.4647 229.063 16.0076 228.247 15.6812C227.431 15.3221 226.419 15.1425 225.211 15.1425C224.003 15.1425 222.975 15.2568 222.126 15.4853C221.31 15.7138 220.673 16.0403 220.216 16.4647C219.792 16.8891 219.579 17.3951 219.579 17.9828C219.579 18.701 219.857 19.2886 220.412 19.7457C221 20.2027 221.783 20.5945 222.762 20.921C223.742 21.2474 224.836 21.5576 226.043 21.8514C227.251 22.1126 228.492 22.4064 229.765 22.7329C231.071 23.0267 232.328 23.4184 233.536 23.9081C234.744 24.3652 235.837 24.9692 236.817 25.72C237.796 26.4383 238.563 27.3361 239.118 28.4134C239.706 29.4907 240 30.7966 240 32.331C240 35.008 239.363 37.1627 238.09 38.7951C236.85 40.4274 235.119 41.619 232.899 42.3699C230.712 43.1207 228.231 43.4962 225.456 43.4962Z" fill="white"/>
</svg>
