<?xml version="1.0" standalone="no"?>
<!DOCTYPE svg PUBLIC "-//W3C//DTD SVG 20010904//EN"
 "http://www.w3.org/TR/2001/REC-SVG-20010904/DTD/svg10.dtd">
<svg version="1.0" xmlns="http://www.w3.org/2000/svg"
 width="256.000000pt" height="256.000000pt" viewBox="0 0 256.000000 256.000000"
 preserveAspectRatio="xMidYMid meet">

<g transform="translate(0.000000,256.000000) scale(0.100000,-0.100000)" stroke="none">
<path d="M607 2283 c-25 -43 -102 -177 -172 -298 -70 -121 -160 -276 -199
-345 -40 -69 -103 -178 -140 -242 l-68 -118 79 -137 c84 -146 287 -498 446
-773 l96 -165 69 -3 70 -3 22 38 c109 184 253 440 253 449 0 5 -75 142 -167
302 l-168 292 134 233 135 232 274 2 274 3 26 -48 c15 -26 74 -130 133 -231
58 -101 106 -187 106 -191 0 -4 -30 -59 -66 -121 -36 -63 -80 -138 -96 -167
-16 -28 -31 -52 -33 -52 -2 0 -17 23 -35 51 l-31 51 65 114 c36 62 66 118 66
124 0 6 -45 88 -99 183 l-100 172 -208 3 -209 2 -100 -172 c-54 -95 -100 -177
-102 -183 -2 -9 254 -465 270 -481 3 -2 33 45 67 106 34 60 65 112 69 114 4 2
54 -78 111 -177 58 -100 120 -206 138 -235 l33 -53 68 3 67 3 118 205 c66 113
157 270 203 350 46 80 84 152 84 160 0 8 -38 80 -84 160 -46 80 -137 237 -203
350 l-118 205 -414 0 -414 0 -200 -345 c-110 -190 -202 -352 -204 -361 -3 -9
68 -142 161 -304 91 -157 166 -291 166 -297 0 -14 -52 -108 -59 -108 -3 0 -55
87 -116 192 -60 105 -149 259 -197 342 -49 83 -88 158 -88 166 0 9 35 76 78
150 43 74 141 243 217 375 76 132 147 255 157 273 l20 32 481 -2 481 -3 238
-413 239 -412 -239 -413 -238 -412 -71 -5 -72 -5 71 -123 71 -123 71 3 70 3
308 534 c169 293 308 537 308 541 0 4 -139 248 -308 541 l-308 534 -621 3
-621 2 -45 -77z m765 -950 l29 -52 -42 -73 c-23 -40 -53 -90 -66 -112 l-25
-38 -64 111 -64 111 31 55 31 56 71 -3 70 -3 29 -52z"/>
</g>
</svg>
