<?xml version="1.0" encoding="UTF-8"?>
<svg width="32" height="32" version="1.1" viewBox="0 0 8.4667 8.4667" xmlns="http://www.w3.org/2000/svg" xmlns:cc="http://creativecommons.org/ns#" xmlns:dc="http://purl.org/dc/elements/1.1/" xmlns:rdf="http://www.w3.org/1999/02/22-rdf-syntax-ns#" xmlns:xlink="http://www.w3.org/1999/xlink">
<metadata>
<rdf:RDF>
<cc:Work rdf:about="">
<dc:format>image/svg+xml</dc:format>
<dc:type rdf:resource="http://purl.org/dc/dcmitype/StillImage"/>
</cc:Work>
</rdf:RDF>
</metadata>
<g transform="translate(-2.4325 18.697)">
<g transform="matrix(.081989 0 0 .081989 3.6011 -19.228)" stroke-width=".38785">
<path d="m39.845 64.427c1.8419-0.65068 4.0712-0.51668 4.8367-0.2679l-0.94246 3.1048c-0.53582-0.17222-1.9328-0.22964-2.8322 0.11003-1.3635 0.49754-2.0667 1.4495-2.0667 2.3872 0 0.90902 0.63149 1.3444 2.0284 2.0476 2.8752 1.4448 3.5498 3.1479 3.5019 4.6405-0.12917 4.076-3.2388 5.9179-5.4443 6.6355-2.2581 0.73187-4.0664 0.61709-4.9228 0.41621l0.97595-3.4781c0.64585 0.16266 2.1337 0.27748 3.1575-0.03825 0.75588-0.23441 2.1433-0.87074 2.1433-2.3298-0.0045-1.0237-0.49276-1.5118-2.4351-2.4446-2.6408-1.2773-3.2484-2.4448-3.1814-4.5497 0.06218-1.971 1.3013-4.8557 5.1811-6.2335"/>
<path d="m17.523 90.242-4.0664 1.4352 0.4497-17.534 4.0617-1.4448-0.44492 17.543"/>
<path d="m16.217 66.374c0.29182-0.03825 2.4877 2.1432 2.4829 2.4016-0.0095 0.2392-2.2102 2.6072-2.4829 2.6455-0.25355 0.02872-2.4973-2.0332-2.5021-2.2915-0.0045-0.26312 2.2246-2.7269 2.5021-2.7557"/>
<path d="m47.796 51.376-4.0664 1.4401 0.55973-24.241 4.0617-1.4496-0.55495 24.25"/>
<path d="m61.546 50.568-0.15788 6.7119c-0.68417 0.0096-1.4639 0.02872-2.2916 0.31575-4.7793 1.6505-6.8221 6.5685-6.8221 11.812 0.0045 6.2385 3.2723 7.4249 5.5495 6.7168 1.7701-0.55012 2.6456-1.3013 3.5258-3.2819l0.01433-0.0045c0.08132 0.70794 0.12438 0.98063 0.37794 1.7031l3.7842-1.3538c-0.33488-0.8804-0.40664-2.8275-0.37316-4.2962l0.45448-19.773-4.0617 1.4496zm-2.9278 21.892c-0.82286 0.26313-2.0284-0.24877-2.0284-3.9803 0-2.8131 0.71283-7.2383 3.4924-8.1712 0.48319-0.12916 0.96638-0.15309 1.2343-0.10046l-0.13874 5.8844c-0.08611 3.5929-1.3156 5.9753-2.5594 6.3676"/>
<path d="m5.1128 66.532-4.0712 1.4543 0.45449-17.534 4.0664-1.4495-0.44971 17.529"/>
<path d="m3.8116 42.683c0.28704-0.03346 2.4829 2.129 2.4781 2.392-0.00953 0.2392-2.2102 2.6074-2.4781 2.6456-0.25834 0.03345-2.5021-2.0237-2.5068-2.2916-0.00454-0.26313 2.2198-2.7126 2.5068-2.746"/>
<path d="m50.069 78.683-4.0712 1.4448 0.4497-17.538 4.0664-1.4353-0.44492 17.529"/>
<path d="m48.758 54.825c0.28704-0.03825 2.4877 2.1386 2.4734 2.4017-0.0045 0.2392-2.2102 2.5977-2.4734 2.636-0.25356 0.02872-2.4973-2.0237-2.5021-2.2867 0-0.25834 2.2246-2.7221 2.5021-2.7509"/>
<path d="m89.011 59.332c0 28.03-27.145 45.831-55.854 45.831-23.265 0-46.764-12.855-46.764-40.798 0-31.154 32.402-51.395 68.364-51.395 3.7268 0 8.8122 0.47845 12.596 1.0477l-0.18179 8.2143c-3.9181-1.0765-9.7212-2.0619-15.252-2.0619-29.891 0-62.336 18.921-62.336 45.415 0 13.821 11.855 33.976 43.018 33.976 38.512 0 53.247-24.451 53.247-39.775 0-13.926-11.955-26.188-32.312-28.202l0.17701-7.5301c14.883 0.76076 35.297 10.243 35.297 35.278zm-30.881-33.388c-1.3491 0-2.4494 1.0955-2.4494 2.4494 0 1.3444 1.1003 2.4351 2.4494 2.4351 1.3491 0 2.4446-1.0907 2.4446-2.4351 0-1.3538-1.0955-2.4494-2.4446-2.4494"/>
<path d="m58.402 28.575c0.37316-0.04785 0.66981-0.26312 0.66981-0.73186 0-0.60284-0.46406-0.77511-1.019-0.77511h-0.77502v2.6313h0.36837v-1.0765h0.39708l0.71761 1.0765h0.46406zm-0.76066-0.20093v-1.0573h0.40186c0.48797 0 0.64585 0.19615 0.64585 0.53582 0 0.33488-0.2105 0.52151-0.57409 0.52151h-0.47362" fill-rule="evenodd"/>
<path d="m41.008 54.605c-0.7798 1.2008-2.636 3.765-4.6501 3.765-1.1817 0-2.1002-0.82764-2.4255-2.1193 3.5306-1.5835 8.3912-5.0663 7.8793-9.86-0.10526-1.0285-0.91854-3.3153-3.832-3.3153-4.5066 0-8.64 5.7456-8.3434 12.18l-0.92332 0.25834c-1.5357 0.28704-1.6696-0.81817-1.6505-2.3443l0.22485-8.7452 4.9084-1.7558 0.07655-2.8848-4.9084 1.7653 0.16266-5.9849-4.0952 2.727-0.12917 4.7267-2.2342 0.8085-0.07176 2.8657 2.2342-0.80372-0.23442 8.7022c-0.07654 2.6742 0.95681 4.2195 3.435 4.2386 1.2486 0.01433 2.7126-0.37316 3.6407-0.8563 1.0429 3.2387 3.6311 3.7507 5.0472 3.7507 3.9373 0 6.6403-3.5067 7.6593-5.4012l-1.7701-1.7175zm-3.4924-8.5156c0.6889 0 0.92332 0.61714 0.96638 0.98552 0.28705 2.3729-2.3155 5.0041-4.7219 6.3627 0.17701-3.7602 1.8132-7.3483 3.7555-7.3483"/>
<path d="m78.634 63.561c-0.7798 1.2055-2.6456 3.7746-4.6549 3.7746-1.1864 0-2.0954-0.83726-2.4207-2.1241 3.5258-1.5931 8.3912-5.0616 7.8792-9.8648-0.10525-1.019-0.91854-3.3201-3.8464-3.3201-4.7457 0-9.0897 6.4058-8.2524 13.247 0.58844 4.7266 3.7746 5.4059 5.406 5.4059 3.9468 0 6.645-3.5114 7.6544-5.3915zm-3.4924-8.5204c0.67934 0 0.90897 0.61709 0.95202 0.9903 0.29662 2.3681-2.3107 5.0137-4.7075 6.3579 0.1818-3.7602 1.8084-7.3482 3.7555-7.3482"/>
<path d="m28.315 68.513c-1.6936 0.53113-3.2723 2.5069-3.9612 4.0809l-0.17222-2.1003-3.7268 1.354c0.11003 0.55012 0.20572 2.1527 0.17223 3.4876l-0.37316 13.936 4.0664-1.4496 0.22964-8.5826c0.1196-4.0617 2.0571-6.3293 2.8178-6.6403 0.8707-0.36359 1.3922 0.15309 1.3443 1.8515l-0.34445 11.936 4.0712-1.4448 0.35402-12.587c0.04785-2.7652-1.6027-4.7458-4.4779-3.8416"/>
<path d="m15.906 44.827c-1.6936 0.53098-3.2675 2.5021-3.9612 4.076l-0.17701-2.0811-3.7364 1.3061c0.11482 0.55495 0.21529 2.1959 0.18658 3.521l-0.37316 13.936 4.0617-1.44 0.22964-8.5969c0.12439-4.0568 2.0619-6.3245 2.8178-6.6354 0.87548-0.36837 1.4017 0.1483 1.3539 1.8562l-0.34923 11.927 4.0712-1.4305 0.34924-12.592c0.05265-2.7652-1.5979-4.7554-4.4731-3.8464"/>
</g>
</g>
</svg>
