<svg xmlns="http://www.w3.org/2000/svg" viewBox="0 0 32 32"><path fill="currentColor" d="M9.84 14.483v4.898H8.296v-6.156l3.184.003c1.352 0 1.813.964 1.813 1.84v4.313h-1.54v-4.305c0-.367-.188-.593-.64-.593H9.838Zm10.485-.073c-.527 0-.935.274-1.105.646a1.609 1.609 0 0 0-.148.667h2.373c-.03-.667-.33-1.313-1.12-1.313m-1.253 2.375c0 .797.49 1.384 1.366 1.384.68 0 1.02-.191 1.413-.587l.953.92c-.61.608-1.25.978-2.377.978-1.477 0-2.89-.814-2.89-3.186 0-2.026 1.234-3.174 2.855-3.174 1.643 0 2.592 1.344 2.592 3.103v.561zm-2.836 2.588c-1.257 0-1.79-.884-1.79-1.757v-6.068h1.54v1.677h1.16v1.258h-1.16v3.035c0 .358.167.556.534.556h.627v1.3h-.911Zm-9.312-6.999H5.372v-1.491h1.552zm.004 7.072c-1.163-.113-1.558-.826-1.558-1.65l.002-4.571h1.556zm18.507-.132c-1.16-.113-1.554-.825-1.554-1.647v-6.996h1.554zm5.432-7.632C29.46 4.74 16.13 4.3 7.54 9.588v.584c8.582-4.459 20.754-4.433 21.863 1.96.37 2.115-.808 4.32-2.912 5.586v1.658c2.533-.937 5.13-3.975 4.376-7.694M15.251 23.827c-5.93.554-12.108-.316-12.972-5-.424-2.31.617-4.757 1.997-6.277v-.813C1.791 13.94.443 16.729 1.22 20.024c.991 4.225 6.294 6.62 14.388 5.825 3.203-.316 7.394-1.357 10.308-2.974v-2.297c-2.644 1.591-7.02 2.908-10.664 3.249Z"/><path d="M27.231 11.135c0-.076-.044-.1-.144-.1h-.098v.216l.098.002c.1 0 .144-.034.144-.105zm.152.535h-.115a.028.028 0 0 1-.024-.015l-.157-.27c-.003-.005-.017-.012-.022-.012h-.07v.267c0 .014-.01.03-.029.03h-.104c-.013 0-.026-.015-.026-.03v-.675c0-.039.015-.055.048-.06a2.14 2.14 0 0 1 .19-.008c.191 0 .307.057.307.238v.013c0 .112-.055.172-.141.2l.163.279c0 .005.005.013.005.02 0 .01-.007.023-.025.023m-.274-.895a.518.518 0 0 0-.512.52c0 .286.23.519.512.519a.52.52 0 0 0 0-1.039m0 1.146a.62.62 0 0 1-.618-.625.62.62 0 0 1 .618-.625.625.625 0 0 1 0 1.25"/></svg>