<svg xmlns="http://www.w3.org/2000/svg" fill="currentColor" viewBox="0 0 33 32"><g clip-path="url(#a)"><path d="M9.963 14.537v5.068H8.318v-6.37l3.396.004c1.442 0 1.933.997 1.933 1.903v4.463h-1.642V15.15c0-.379-.2-.613-.683-.613zm11.185-.076c-.563 0-.998.284-1.18.668a1.626 1.626 0 0 0-.157.691h2.53c-.032-.69-.351-1.359-1.194-1.359Zm-1.337 2.457c0 .826.523 1.433 1.457 1.433.726 0 1.087-.198 1.508-.608l1.016.952c-.65.63-1.334 1.012-2.536 1.012-1.575 0-3.082-.842-3.082-3.296 0-2.097 1.316-3.284 3.045-3.284 1.752 0 2.765 1.39 2.765 3.21v.581H19.81Zm-3.026 2.679c-1.34 0-1.908-.915-1.908-1.819V11.5h1.642v1.735h1.238v1.302H16.52v3.14c0 .37.179.576.57.576h.668v1.344zm-9.932-7.242H5.197v-1.543h1.656zm.005 7.317c-1.24-.117-1.663-.855-1.663-1.706l.002-4.73h1.66v6.436Zm19.74-.136c-1.238-.117-1.658-.854-1.658-1.704v-7.24h1.658zm5.795-7.897C30.89 4.457 16.673 4.002 7.51 9.473v.604c9.154-4.614 22.138-4.587 23.32 2.028.396 2.188-.86 4.468-3.106 5.78v1.714c2.702-.97 5.473-4.112 4.669-7.96M15.735 24.205c-6.324.573-12.915-.327-13.837-5.173-.451-2.39.658-4.922 2.13-6.495v-.841C1.379 13.975-.06 16.86.769 20.27c1.057 4.372 6.713 6.85 15.347 6.027 3.416-.327 7.887-1.404 10.995-3.077v-2.377c-2.82 1.647-7.488 3.009-11.375 3.362Z"/><path d="M28.514 11.073c0-.079-.047-.104-.154-.104h-.104v.224l.104.002c.107 0 .154-.035.154-.109zm.162.553h-.123a.03.03 0 0 1-.026-.015l-.167-.279c-.003-.006-.017-.012-.023-.012h-.075v.276a.03.03 0 0 1-.03.03h-.112c-.014 0-.027-.015-.027-.03v-.699c0-.04.016-.057.05-.062.04-.005.146-.009.204-.009.203 0 .327.06.327.247v.013c0 .117-.06.178-.15.208l.173.288c.001.006.005.014.005.02 0 .012-.007.024-.026.024m-.292-.926a.545.545 0 0 0-.546.54c0 .294.244.535.546.535.3 0 .547-.24.547-.536a.546.546 0 0 0-.547-.539m0 1.186a.652.652 0 0 1-.66-.646c0-.356.293-.647.66-.647.363 0 .662.29.662.646a.656.656 0 0 1-.662.647"/></g><defs><clipPath id="a"><path fill="#fff" d="M.534 0h32v32h-32z"/></clipPath></defs></svg>