<svg xmlns="http://www.w3.org/2000/svg" width="32" height="22"><path fill="currentColor" d="M9.428 8.95v5.168H7.783V7.623l3.396.003c1.442 0 1.934 1.017 1.934 1.941v4.55H11.47V9.577c0-.387-.2-.625-.684-.625zm11.185-.077c-.562 0-.998.289-1.18.681a1.684 1.684 0 0 0-.157.705h2.53c-.032-.705-.351-1.386-1.193-1.386m-1.337 2.505c0 .842.523 1.461 1.457 1.461.727 0 1.088-.201 1.508-.62l1.016.97c-.65.643-1.333 1.033-2.536 1.033-1.575 0-3.082-.859-3.082-3.36 0-2.139 1.316-3.35 3.045-3.35 1.752 0 2.765 1.418 2.765 3.274v.592zm-3.025 2.732c-1.34 0-1.909-.933-1.909-1.854V5.853h1.643v1.77h1.238V8.95h-1.238v3.203c0 .377.178.586.57.586h.668v1.37zM6.319 6.725H4.663V5.152h1.656zm.004 7.461c-1.24-.119-1.662-.871-1.662-1.74l.002-4.823h1.66zm19.74-.139c-1.238-.119-1.658-.87-1.658-1.737V4.928h1.658zm5.795-8.052c-1.503-7.324-15.72-7.788-24.882-2.21v.617C16.13-.303 29.113-.275 30.296 6.47c.395 2.23-.862 4.556-3.107 5.892v1.75c2.702-.99 5.473-4.195 4.669-8.118M15.2 18.809c-6.325.584-12.915-.334-13.837-5.276-.452-2.436.658-5.018 2.13-6.622v-.858C.845 8.377-.594 11.319.235 14.796c1.057 4.458 6.713 6.985 15.347 6.146 3.415-.334 7.886-1.432 10.994-3.138V15.38c-2.82 1.68-7.488 3.069-11.374 3.429"/><path fill="#000" d="M27.98 5.418c0-.08-.048-.106-.155-.106h-.104v.228l.104.002c.107 0 .154-.035.154-.11zm.16.564h-.122a.03.03 0 0 1-.026-.016l-.167-.284c-.003-.006-.017-.013-.023-.013h-.075v.282c0 .015-.01.031-.03.031h-.112c-.014 0-.027-.016-.027-.031v-.712c0-.041.016-.059.05-.064.04-.005.146-.009.204-.009.204 0 .327.06.327.252v.013c0 .119-.06.181-.15.212l.173.294c.001.006.005.014.005.02 0 .012-.007.025-.026.025m-.29-.944a.55.55 0 0 0-.547.55.547.547 0 0 0 1.093 0c0-.3-.246-.55-.547-.55m0 1.209a.658.658 0 1 1 0-1.319c.362 0 .66.297.66.66 0 .363-.298.659-.66.659"/></svg>
