<?xml version="1.0" encoding="UTF-8"?>
<svg version="1.1" viewBox="0 0 32 32" xmlns="http://www.w3.org/2000/svg" xmlns:cc="http://creativecommons.org/ns#" xmlns:dc="http://purl.org/dc/elements/1.1/" xmlns:rdf="http://www.w3.org/1999/02/22-rdf-syntax-ns#">
<g transform="matrix(.10738 0 0 .10738 -.1028 5.605)" fill="currentColor">
<path d="m88.799 84.354v48.122h-15.319v-60.487l31.625 0.0314c13.433 0 18.008 9.4725 18.008 18.077v42.379h-15.291v-42.3c0-3.6043-1.8657-5.8222-6.366-5.8222h-12.658zm104.16-0.7227c-5.2359 0-9.2882 2.6917-10.981 6.3457-1.0029 2.1939-1.3477 3.8753-1.4657 6.5614h23.567c-0.30235-6.5614-3.278-12.907-11.121-12.907m-12.446 23.333c0 7.8354 4.8708 13.602 13.567 13.602 6.7661 0 10.129-1.875 14.041-5.7668l9.4615 9.0337c-6.0581 5.9807-12.415 9.6126-23.615 9.6126-14.664 0-28.698-7.9958-28.698-31.299 0-19.911 12.253-31.183 28.353-31.183 16.32 0 25.748 13.197 25.748 30.482v5.518h-38.858m-28.174 25.436c-12.479 0-17.774-8.6871-17.774-17.267v-59.624h15.295v16.48h11.53v12.365h-11.53v29.821c0 3.5139 1.6593 5.4645 5.3078 5.4645h6.2222v12.762h-9.0503m-92.493-68.771h-15.424v-14.651h15.424zm0.0388 69.482c-11.55-1.1099-15.479-8.1156-15.479-16.2l0.0167-44.923h15.462v61.123zm183.83-1.2924c-11.526-1.1117-15.437-8.1064-15.437-16.18v-68.747h15.437zm53.965-74.991c-13.989-68.205-146.39-72.522-231.72-20.571v5.7355c85.251-43.812 206.16-43.554 217.17 19.266 3.6854 20.772-8.0198 42.429-28.925 54.877v16.287c25.162-9.2052 50.967-39.055 43.474-75.594m-155.12 119.33c-58.896 5.4442-120.27-3.1046-128.86-49.127-4.2034-22.688 6.1319-46.738 19.843-61.676v-7.9884c-24.682 21.644-38.078 49.046-30.366 81.423 9.8431 41.518 62.517 65.047 142.92 57.233 31.81-3.1046 73.444-13.333 102.39-29.22v-22.57c-26.264 15.639-69.726 28.572-105.92 31.924"/>
<path d="m261.56 51.458c0-0.74851-0.43694-0.98633-1.4362-0.98633h-0.96421v2.1183c0.14011 0 0.84069 0.0258 0.96421 0.0258 0.99924 0 1.4362-0.33369 1.4362-1.0343v-0.12344zm1.5044 5.2525h-1.143c-0.10324 0-0.19358-0.0646-0.23783-0.15117l-1.5597-2.6438c-0.0277-0.0534-0.16224-0.118-0.2157-0.118h-0.70058v2.6216c0 0.14012-0.0959 0.29129-0.28023 0.29129h-1.0343c-0.12905 0-0.2581-0.15117-0.2581-0.29129v-6.6315c0-0.38347 0.14933-0.54386 0.47381-0.59364 0.36503-0.0479 1.3569-0.0811 1.8916-0.0811 1.8989 0 3.0475 0.56046 3.0475 2.3451v0.12345c0 1.1043-0.5494 1.6869-1.4012 1.9727l1.6169 2.7341c0.0103 0.0553 0.0479 0.13097 0.0479 0.19542 0 0.10693-0.0646 0.22677-0.24705 0.22677m-2.7138-8.7941c-2.8134 0-5.0884 2.323-5.0884 5.1197 0 2.8004 2.275 5.0865 5.0884 5.0865 2.7986 0 5.0958-2.2861 5.0958-5.0865 0-2.7968-2.2972-5.1197-5.0958-5.1197m0 11.261c-3.4181 0-6.1448-2.758-6.1448-6.1411 0-3.3775 2.7267-6.1429 6.1448-6.1429 3.3812 0 6.1595 2.7654 6.1595 6.1429 0 3.383-2.7783 6.1411-6.1595 6.1411"/>
</g>
</svg>
