<svg xmlns="http://www.w3.org/2000/svg" viewBox="0 0 32 32"><path d="M16 0a16 16 0 1 0 0 32 16 16 0 0 0 0-32m.041 3.228c3.394 0 6.39 1.209 8.824 3.56 1.175 1.125 1.962 2.201 2.632 3.592.91 1.879 1.283 3.51 1.283 5.661 0 2.84-.82 5.314-2.516 7.616-.513.686-1.498 1.73-2.152 2.26a12.9 12.9 0 0 1-6.374 2.772c-.778.1-2.632.116-3.36.025a13.24 13.24 0 0 1-6.25-2.607 12.67 12.67 0 0 1-4.809-8.36 16.6 16.6 0 0 1 0-3.518c.613-4.28 3.311-7.955 7.185-9.792 1.796-.853 3.435-1.209 5.537-1.209M16 5.157a10.76 10.76 0 0 0-5.397 1.407c-1.556.877-3.162 2.483-4.04 4.056a11.6 11.6 0 0 0-1.307 3.758c-.119 1.07-.122 2.149-.008 3.22.24 1.572.828 3.112 1.697 4.411.463.712.455.704.869.464a2.65 2.65 0 0 0 1.34-1.424c.399-.811.878-1.58 1.433-2.293.375-.399.668-.869.86-1.382.133-.306.373-.761.53-1.001l.29-.448-.372-.364a4.1 4.1 0 0 1-.985-1.324c-.083-.29.016-.447.389-.662.372-.215.645-.282 1.655-.381q.6-.06 1.184-.207c.165-.066.662-.331 1.109-.604 1.274-.778 1.382-.82 2.152-.803.645.017.645.017 1.026-.215q1.2-.72 3.477-2.64.282-.26.629-.423c.215.033.604 1.01.662 1.64.023.466-.068.932-.265 1.357-.058.165-.083.314-.058.339.066.066.29-.207.29-.356q.015-.29.29-.041c.116.116.223.149.471.149.265 0 .332.024.44.165.173.232.214.877.082 1.291-.168.437-.485.8-.894 1.027a5 5 0 0 0-1.291 1.258c-.116.165-.331.546-.489.82s-.405.686-.563.918a6.6 6.6 0 0 0-.844 2.003 5 5 0 0 0-.165 1.863c-.017 1.432-.083 1.78-.472 2.218a4.64 4.64 0 0 0-.919 2.301c-.015.4-.08.798-.19 1.184-.042.132.041.132.513-.009a10.93 10.93 0 0 0 7.656-9.022c.097-1.17.056-2.348-.124-3.51A10.76 10.76 0 0 0 23.79 8.46a9.9 9.9 0 0 0-2.864-2.127C19.27 5.504 17.862 5.173 16 5.173z"/><path d="m17 13 .385-.857L18 12l-.385.857z"/></svg>