<?xml version="1.0" encoding="UTF-8" standalone="no"?>
<!-- Created with Inkscape (http://www.inkscape.org/) -->

<svg
   width="16"
   height="16"
   viewBox="0 0 4.2333333 4.2333333"
   version="1.1"
   id="svg8"
   inkscape:version="1.2.2 (732a01da63, 2022-12-09)"
   sodipodi:docname="librewolf.svg"
   inkscape:export-filename="LibreWolf_icon.png"
   inkscape:export-xdpi="96"
   inkscape:export-ydpi="96"
   xmlns:inkscape="http://www.inkscape.org/namespaces/inkscape"
   xmlns:sodipodi="http://sodipodi.sourceforge.net/DTD/sodipodi-0.dtd"
   xmlns="http://www.w3.org/2000/svg"
   xmlns:svg="http://www.w3.org/2000/svg"
   xmlns:rdf="http://www.w3.org/1999/02/22-rdf-syntax-ns#"
   xmlns:cc="http://creativecommons.org/ns#"
   xmlns:dc="http://purl.org/dc/elements/1.1/">
  <defs
     id="defs2" />
  <sodipodi:namedview
     id="base"
     pagecolor="#ffffff"
     bordercolor="#666666"
     borderopacity="1.0"
     inkscape:pageopacity="0.0"
     inkscape:pageshadow="2"
     inkscape:zoom="31.678384"
     inkscape:cx="1.7204161"
     inkscape:cy="9.5648819"
     inkscape:document-units="mm"
     inkscape:current-layer="layer1"
     showgrid="false"
     inkscape:window-width="1920"
     inkscape:window-height="1009"
     inkscape:window-x="-8"
     inkscape:window-y="-8"
     inkscape:window-maximized="1"
     inkscape:showpageshadow="false"
     units="px"
     fit-margin-top="0"
     fit-margin-left="0"
     fit-margin-right="0"
     fit-margin-bottom="0"
     inkscape:pagecheckerboard="0"
     inkscape:deskcolor="#d1d1d1" />
  <metadata
     id="metadata5">
    <rdf:RDF>
      <cc:Work
         rdf:about="">
        <dc:format>image/svg+xml</dc:format>
        <dc:type
           rdf:resource="http://purl.org/dc/dcmitype/StillImage" />
      </cc:Work>
    </rdf:RDF>
  </metadata>
  <g
     inkscape:label="Layer 1"
     inkscape:groupmode="layer"
     id="layer1"
     transform="translate(-42.106554,-153.8982)">
    <path
       id="path875"
       style="fill:#ffffff;fill-opacity:1;stroke:none;stroke-width:0.0305609;stroke-miterlimit:4;stroke-dasharray:none"
       d="m 44.223222,154.08195 a 1.9329199,1.9329199 0 0 0 -1.93292,1.93292 1.9329199,1.9329199 0 0 0 1.93292,1.93291 1.9329199,1.9329199 0 0 0 1.93292,-1.93291 1.9329199,1.9329199 0 0 0 -1.93292,-1.93292 z m 0.0049,0.38937 c 0.408989,0 0.771995,0.14654 1.066178,0.43038 0.141719,0.13674 0.236775,0.26643 0.318152,0.43416 0.11008,0.22688 0.154639,0.42421 0.154639,0.68461 0,0.3428 -0.09897,0.64176 -0.304586,0.91986 -0.0611,0.0826 -0.180462,0.20819 -0.259665,0.27311 -0.217256,0.17809 -0.494182,0.29859 -0.768968,0.33461 -0.09494,0.0124 -0.319245,0.014 -0.406428,0.003 v 4e-5 c -0.270765,-0.0348 -0.529741,-0.14272 -0.755754,-0.315 -0.07372,-0.0562 -0.212028,-0.19538 -0.272408,-0.27416 -0.169076,-0.22057 -0.274235,-0.47093 -0.30892,-0.73552 -0.01485,-0.11327 -0.01475,-0.3215 1.78e-4,-0.42503 0.07466,-0.51753 0.400341,-0.96143 0.868037,-1.1831 0.21754,-0.1031 0.416682,-0.14676 0.669545,-0.14676 z m -0.0051,0.23381 c -0.237661,-2.3e-4 -0.446068,0.0543 -0.652318,0.1705 -0.187761,0.10585 -0.38188,0.3002 -0.488185,0.48875 -0.0783,0.13885 -0.135582,0.30365 -0.157942,0.45423 -0.01467,0.0987 -0.01497,0.29479 -5.89e-4,0.38933 0.02877,0.18919 0.100529,0.37618 0.204571,0.53301 0.05682,0.0857 0.05503,0.0846 0.105146,0.0561 0.08965,-0.0513 0.113054,-0.0761 0.161893,-0.17181 0.05711,-0.1119 0.118165,-0.20967 0.173334,-0.27757 0.06369,-0.0783 0.07243,-0.0923 0.104382,-0.16634 0.01607,-0.0372 0.04491,-0.0919 0.06409,-0.12156 l 0.03487,-0.0538 -0.0451,-0.0444 c -0.05991,-0.0589 -0.109751,-0.12567 -0.119126,-0.15962 -0.0096,-0.0346 0.0018,-0.0541 0.04674,-0.08 0.04551,-0.0264 0.07804,-0.0339 0.199676,-0.0463 0.05921,-0.005 0.123503,-0.0172 0.143753,-0.025 0.02016,-0.008 0.08035,-0.0404 0.133785,-0.0728 0.154269,-0.0935 0.167323,-0.0984 0.259814,-0.0964 0.07811,0.002 0.07827,0.002 0.124581,-0.0263 0.09706,-0.0587 0.236471,-0.16454 0.419907,-0.31888 0.03517,-0.0296 0.06905,-0.0529 0.07529,-0.0517 0.02594,0.004 0.0736,0.12194 0.08084,0.19838 0.0044,0.0464 -0.0045,0.0922 -0.03209,0.16395 -0.0076,0.0195 -0.01094,0.0383 -0.0077,0.0415 0.0079,0.008 0.03487,-0.0258 0.03487,-0.0436 0,-0.0226 0.01489,-0.025 0.03516,-0.005 0.01474,0.0138 0.02745,0.0179 0.0571,0.0179 0.03237,0 0.04037,0.003 0.053,0.0199 0.02143,0.0286 0.02647,0.10656 0.01008,0.15596 -0.01596,0.0481 -0.0642,0.10342 -0.107977,0.12402 -0.03916,0.0185 -0.118469,0.0959 -0.155581,0.15193 -0.0142,0.0214 -0.04084,0.0663 -0.05919,0.0994 -0.01835,0.0333 -0.04913,0.0834 -0.0684,0.11156 -0.03791,0.0553 -0.07038,0.13255 -0.101725,0.24187 -0.0184,0.0643 -0.01995,0.081 -0.02071,0.2242 -9.14e-4,0.17302 -0.0099,0.21549 -0.05665,0.26877 -0.05319,0.0606 -0.106257,0.19359 -0.110721,0.27745 -0.0028,0.053 -0.01097,0.10457 -0.02255,0.14275 -0.0051,0.0168 0.0044,0.0166 0.0612,-9.2e-4 0.165423,-0.0522 0.300232,-0.12221 0.430377,-0.22372 0.06921,-0.0539 0.18881,-0.17473 0.23896,-0.24125 0.136024,-0.18044 0.228569,-0.40648 0.255801,-0.62474 0.01311,-0.10513 0.0055,-0.3275 -0.01451,-0.42404 -0.05305,-0.25572 -0.167347,-0.4717 -0.347381,-0.65654 -0.11224,-0.11523 -0.214415,-0.19118 -0.345876,-0.25709 -0.199474,-0.10006 -0.370384,-0.14043 -0.594894,-0.14067 z" />
    <g
       id="g1061">
      <g
         id="g1045">
        <path
           id="path1053"
           style="fill:#ffffff;stroke-width:0.0624789"
           d="m 44.285351,155.6661 0.06974,-0.0892 0.112206,-0.0157 -0.06974,0.0892 z" />
      </g>
    </g>
  </g>
</svg>
