<svg width="32" height="32" viewBox="0 0 32 32" xmlns="http://www.w3.org/2000/svg">
<path d="M17.8922 13.5245C18.6677 13.7616 19.1752 14.2703 19.4147 15.0505V19.4922H22.8593V19.4877H23.3892V19.4787H23.4386V11.9985C23.0434 10.7111 22.2066 9.87079 20.9281 9.47766H5.51048C4.23177 9.86929 3.39494 10.7096 3 11.9985V27.5557C3.39521 28.8431 4.25 29.6579 5.56437 30H20.8743C22.1886 29.6579 23.0434 28.8431 23.4386 27.5557V23.4998H19.4147V24.4767C19.1752 25.2569 18.6572 25.7506 17.8608 25.9577H8.58234C7.78593 25.7506 7.26796 25.2569 7.02844 24.4767V15.0505C7.26796 14.2703 7.77545 13.7616 8.5509 13.5245H17.8922Z"/>
<path d="M30 5.52084C29.6048 4.23341 28.768 3.39313 27.4895 3H12.0719C10.7934 3.39313 9.95659 4.23341 9.56138 5.52084V9.47766H13.5853V8.57286C13.8249 7.7926 14.3323 7.28393 15.1078 7.04685H24.4491C25.2246 7.28393 25.732 7.7926 25.9716 8.57286V17.999C25.732 18.7793 25.2141 19.2729 24.4177 19.48H15.1392C14.3428 19.2729 13.8249 18.7793 13.5853 17.999V13.5245H9.56138V21.078C9.95659 22.3655 10.8114 23.1802 12.1258 23.5223H27.4356C28.75 23.1802 29.6048 22.3655 30 21.078V5.52084Z"/>
</svg>