<svg xmlns="http://www.w3.org/2000/svg" width="32" height="28"><path fill="currentColor" d="M0 11.15c0 .104.012.197.033.262.015.073.034.158.059.258.07.354.188.702.286.895.086.238.36.842.515 1.14l.306.699c.096.22.193.416.272.552.162.378.285.66.379.85l.373.887c.073.165.153.332.23.482l.415.978.864 1.945c.155.352.263.598.35.775l.085.19c.226.501.686 1.522.826 1.767l.81 1.957c.183.405.317.668.426.829l.136.32.044.063a.107.107 0 0 0 .024.037c.3.425.7.784 1.069.985.249.15.669.343.943.416.336.084 1.393.05 1.644-.042a.25.25 0 0 0 .043-.023c.576-.087 1.414-.666 1.869-1.336.125-.18.184-.271.188-.317.051-.073.11-.167.178-.283.064-.107.137-.233.22-.381l.53-.931c.396-.649 1.203-2.102 2.24-3.963l.596-1.072.015-.005c.035-.012.084.017.145.087.073.082.165.22.275.416l.166.305.048.089.125.23c.06.11.122.22.181.325l.067.124.47.814.745 1.35.64 1.142.188.33.45.803.071.134.207.36.038.066a3.604 3.604 0 0 0 2.24 1.77 3.588 3.588 0 0 0 2.733-.555l.009.002.013-.004.022-.012.03-.021c.024-.02.054-.047.092-.085a4.077 4.077 0 0 0 .254-.215c.563-.76.98-1.586 1.11-1.915.171-.341.4-.852.693-1.54l.136-.337.098-.199c.063-.132.134-.283.21-.454.363-.796.535-1.163.58-1.302l.032-.073.145-.345c.16-.342.37-.816.663-1.475l.022-.05c.46-1.025.977-2.208 1.15-2.657.49-.979.942-1.975 1.358-2.988l.123-.293c.163-.305.385-.923.464-1.35a3.37 3.37 0 0 0-2.793-3.833 3.38 3.38 0 0 0-2.96 1.015c-.352.369-.948 1.476-1.225 2.247l-.061.157c-.153.316-.36.77-.643 1.411-.315.704-.595 1.343-.768 1.742-.08.166-.171.37-.28.617l-.085.191c-.419.973-.653 1.417-.729 1.392-.016-.018-.025-.03-.033-.033l-.008-.017-.074-.102-.294-.536a.705.705 0 0 0-.033-.07c-.022-.042-.05-.089-.081-.141l-.029-.048c-.047-.08-.1-.17-.152-.269l-.172-.294c-.03-.068-.078-.148-.135-.246l-.006-.009c-.044-.074-.094-.159-.148-.256a2.976 2.976 0 0 0-.217-.39 3.607 3.607 0 0 0-.161-.272 5.916 5.916 0 0 1-.147-.252l-.062-.108a1.86 1.86 0 0 0-.09-.176 10.663 10.663 0 0 0-.346-.661l-.029-.048-.07-.11.128-.16.13-.158.385-.463.07-.08c.031-.037.053-.063.065-.074.194-.202.357-.372.491-.516a6.46 6.46 0 0 0 .49-.457c.515-.5 1.042-.989 1.577-1.467a3.274 3.274 0 0 0 .733-.815l.005-.007a.577.577 0 0 0 .033-.168.707.707 0 0 0-.028-.203.954.954 0 0 0-.204-.4 2.797 2.797 0 0 0-.33-.37c-.872-.839-2.5-1.099-4.293-.688-1.042.241-2.437.871-3.117 1.38l-.565.34c-.612.42-2.215 2.063-2.676 2.759-.324.49-1.615 2.68-3.353 5.682-.093.045-.196-.144-.445-.726a3.658 3.658 0 0 0-.237-.488l-.036-.059a14.51 14.51 0 0 0-.44-1.071 32.726 32.726 0 0 0-.613-1.334c-.16-.407-.39-.908-.553-1.216l-.026-.058a34.136 34.136 0 0 0-.493-1.185l-.073-.162a6.92 6.92 0 0 0-.171-.356l-.028-.046-.038-.055a3.404 3.404 0 0 0-.994-1.393l-.03-.032a2.881 2.881 0 0 0-.429-.285 6.403 6.403 0 0 0-.876-.38 2.61 2.61 0 0 0-.57-.097c-.348-.027-1.3.173-1.757.401C.746 8.625 0 9.867 0 11.15M22.124.088a1.493 1.493 0 0 0-.255.11.795.795 0 0 0-.139.096.893.893 0 0 0-.067.046c-.839.628-.663 1.979.268 2.44A1.452 1.452 0 0 0 23.943.968.48.48 0 0 0 23.91.84a.844.844 0 0 0-.073-.134A1.167 1.167 0 0 0 23.73.57c-.113-.145-.29-.28-.525-.407a1.259 1.259 0 0 0-1.082-.075"/><path fill="#000" d="M18.041 4.717c-.26.262-1.016.73-1.67.998-1.71.713-2.994 1.56-3.456 2.307-.192.318-.267.352-.402.193a4.135 4.135 0 0 1-.377-1.913 5.474 5.474 0 0 1 .386-2.222c.15-.355.338-.693.558-1.008l.045-.074c.084-.15.185-.268.21-.293l.006-.008.006-.007c.056-.095.24-.292.515-.539A4.616 4.616 0 0 1 16.32.961c1.334-.113 2.22.585 2.53 1.63.01.02.016.046.02.077.027.107.05.216.066.33.02.127-.014.34-.073.542l-.006.041-.005.023a.12.12 0 0 1-.024.05c-.056.166-.129.311-.195.377-.031.06-.082.134-.145.214a3.177 3.177 0 0 1-.289.321l-.076.075zM7.968 8.39c-.016.43.06.813.184 1.074.063.163.157.374.167.37.272.476.662.875 1.133 1.157l.168.084c.05.024.095.044.132.06a.584.584 0 0 0 .086.032c.033 0 .058-.202.066-.437l.001-.097.007-.14a6.536 6.536 0 0 1 .06-.601l.036-.214c.014-.049.026-.1.039-.155a7.148 7.148 0 0 1 .361-.998c.167-.37.243-.663.243-.965.008-.385-.067-.486-.319-.771-.243-.277-.587-.31-.98-.277-.529.05-1.334.721-1.384 1.879"/></svg>
