<svg xmlns="http://www.w3.org/2000/svg" viewBox="0 0 32 32"><path fill="currentColor" d="M1 13.542c0 .099.011.187.031.248.014.069.032.15.055.244.066.335.177.664.268.846.08.225.337.796.483 1.077l.287.662c.09.208.18.393.255.521.152.358.267.624.355.804l.35.84c.068.155.144.313.216.455l.389.924.81 1.84c.145.332.246.565.327.732l.08.18c.212.474.643 1.439.775 1.67l.76 1.85c.171.384.297.632.4.784l.126.302.042.06a.099.099 0 0 0 .022.036c.28.401.657.74 1.002.931.234.142.627.324.885.393.315.08 1.305.047 1.54-.04a.231.231 0 0 0 .04-.021c.54-.082 1.326-.63 1.753-1.264.117-.17.172-.256.176-.3.048-.069.103-.157.167-.267.06-.1.129-.22.207-.36l.496-.88c.371-.614 1.128-1.988 2.1-3.748l.56-1.013.013-.005c.033-.01.079.017.136.082.07.078.155.21.258.394l.155.289.045.084.118.218c.056.103.114.208.17.306l.062.118.44.77.7 1.276.6 1.08.175.312.422.759.067.126.194.341.036.062a3.384 3.384 0 0 0 2.1 1.673 3.341 3.341 0 0 0 2.562-.524l.008.001.013-.003.02-.011.027-.02a1.17 1.17 0 0 0 .088-.08 3.84 3.84 0 0 0 .238-.204c.528-.718.918-1.5 1.04-1.81.16-.323.375-.806.65-1.456l.128-.32.091-.187c.06-.125.126-.268.198-.43.34-.752.5-1.1.544-1.23l.03-.07.135-.325c.15-.325.348-.772.621-1.396l.021-.047c.43-.969.916-2.087 1.078-2.512a41.88 41.88 0 0 0 1.274-2.825l.115-.277c.153-.288.36-.873.435-1.277.26-1.727-.908-3.343-2.619-3.623a3.153 3.153 0 0 0-2.775.959c-.33.349-.889 1.396-1.148 2.125l-.057.149c-.144.298-.337.728-.603 1.334-.296.665-.558 1.27-.72 1.646-.075.157-.16.35-.263.584l-.079.18c-.393.92-.612 1.34-.684 1.317-.014-.017-.024-.03-.03-.032l-.008-.016-.07-.096-.275-.507a.677.677 0 0 0-.031-.067c-.02-.038-.047-.083-.076-.133l-.027-.045a7.051 7.051 0 0 1-.143-.254l-.161-.278c-.027-.064-.073-.14-.126-.233l-.006-.008c-.041-.07-.089-.15-.139-.242a2.817 2.817 0 0 0-.203-.37 3.417 3.417 0 0 0-.151-.256 5.566 5.566 0 0 1-.139-.239l-.057-.102a1.75 1.75 0 0 0-.084-.166c-.067-.14-.206-.418-.325-.625l-.027-.045-.065-.104.119-.152.122-.149.361-.438.065-.076c.03-.034.05-.059.062-.07.181-.19.334-.351.46-.487.16-.136.313-.28.459-.432.483-.473.977-.935 1.479-1.388a3.08 3.08 0 0 0 .687-.77l.005-.007a.577.577 0 0 0 .03-.159.682.682 0 0 0-.026-.191.904.904 0 0 0-.191-.379 2.639 2.639 0 0 0-.309-.35c-.818-.792-2.343-1.038-4.025-.65-.977.228-2.284.824-2.923 1.304l-.529.322c-.574.397-2.076 1.95-2.508 2.609-.304.462-1.515 2.533-3.144 5.372-.087.043-.184-.136-.418-.686a3.474 3.474 0 0 0-.221-.462l-.034-.055c-.069-.208-.203-.53-.413-1.013a31.158 31.158 0 0 0-.574-1.26 12.9 12.9 0 0 0-.52-1.151l-.023-.055a32.444 32.444 0 0 0-.463-1.12l-.068-.154a6.597 6.597 0 0 0-.16-.336l-.027-.043-.036-.053a3.221 3.221 0 0 0-.93-1.317l-.03-.03a2.697 2.697 0 0 0-.401-.27 5.976 5.976 0 0 0-.821-.36 2.426 2.426 0 0 0-.535-.09c-.327-.025-1.22.163-1.647.379C1.699 11.156 1 12.329 1 13.542M21.742 3.083c-.092.03-.174.067-.24.105a.747.747 0 0 0-.13.09.836.836 0 0 0-.063.043c-.786.595-.621 1.871.251 2.307a1.352 1.352 0 0 0 1.527-.203c.418-.38.562-.98.36-1.51a.456.456 0 0 0-.032-.121.796.796 0 0 0-.069-.127 1.102 1.102 0 0 0-.098-.128 1.532 1.532 0 0 0-.492-.385 1.17 1.17 0 0 0-1.014-.07Z"/><path d="M17.914 7.46c-.244.248-.953.69-1.566.944-1.604.674-2.807 1.475-3.24 2.18-.18.302-.25.333-.377.183a3.94 3.94 0 0 1-.354-1.808 5.215 5.215 0 0 1 .362-2.102c.142-.335.318-.654.524-.953l.042-.07c.079-.142.173-.253.197-.277l.005-.007.006-.006c.053-.09.226-.277.483-.51A4.313 4.313 0 0 1 16.3 3.908c1.251-.106 2.081.554 2.372 1.542a.2.2 0 0 1 .018.072c.027.102.048.205.063.313.019.12-.014.32-.068.512l-.006.039-.005.021a.113.113 0 0 1-.022.048c-.053.157-.121.294-.184.357a1.41 1.41 0 0 1-.135.202c-.076.098-.17.205-.271.303l-.071.071zM8.47 10.933c-.015.406.056.768.173 1.015.059.154.146.354.156.349.255.45.621.828 1.063 1.094l.157.08c.047.023.089.042.124.057a.541.541 0 0 0 .08.03c.031 0 .055-.19.062-.412l.001-.093.007-.132a6.323 6.323 0 0 1 .056-.568l.034-.203.036-.146a6.749 6.749 0 0 1 .339-.944c.156-.349.228-.626.228-.912.007-.365-.063-.46-.3-.73-.228-.261-.55-.293-.919-.261-.495.048-1.25.682-1.297 1.776"/></svg>