<svg xmlns="http://www.w3.org/2000/svg" fill="currentColor" viewBox="0 0 33 32"><g clip-path="url(#a)"><path d="M.066 13.418c0 .104.012.197.034.261.014.072.034.157.058.256.07.352.189.697.286.889.086.236.36.835.515 1.131l.307.695c.095.218.192.413.271.548.162.376.285.654.379.843l.373.882c.073.164.153.33.23.479l.416.97.864 1.932c.154.35.263.594.349.77l.085.188c.226.498.686 1.512.827 1.754l.81 1.944c.183.402.317.663.426.823l.136.317.044.063a.103.103 0 0 0 .023.038c.3.421.701.778 1.07.978.248.149.668.34.943.412.336.083 1.392.05 1.643-.041a.255.255 0 0 0 .043-.023c.577-.086 1.415-.662 1.87-1.327.125-.179.183-.27.187-.314.052-.073.11-.166.179-.281.063-.106.136-.232.22-.379l.53-.924c.395-.645 1.203-2.088 2.24-3.936l.596-1.064.014-.005c.036-.012.084.017.146.086.073.081.165.22.274.413l.166.304.048.087.126.23.18.322.067.123.47.808.746 1.34.64 1.135.187.328.45.797.072.133.207.358.038.065a3.6 3.6 0 0 0 2.24 1.757 3.608 3.608 0 0 0 2.733-.55h.008l.014-.002.021-.012.03-.021c.024-.02.055-.047.093-.085a4.19 4.19 0 0 0 .254-.213c.563-.754.979-1.575 1.11-1.901.17-.34.4-.847.692-1.53l.137-.335.098-.197c.063-.131.133-.281.21-.45.363-.792.535-1.156.58-1.294l.032-.072.144-.343c.16-.34.372-.81.664-1.465l.022-.05c.459-1.017.977-2.192 1.15-2.638a43.56 43.56 0 0 0 1.358-2.967l.123-.29c.163-.303.385-.917.464-1.342.277-1.814-.969-3.511-2.793-3.806a3.394 3.394 0 0 0-2.96 1.008c-.353.367-.948 1.466-1.225 2.232l-.061.156c-.154.313-.36.764-.643 1.4a157.27 157.27 0 0 0-.768 1.73 24.6 24.6 0 0 0-.28.614l-.085.189c-.419.966-.653 1.407-.73 1.382a.14.14 0 0 0-.032-.033l-.008-.016-.075-.102-.293-.532a.702.702 0 0 0-.034-.07c-.021-.04-.05-.088-.08-.14l-.03-.047a7.28 7.28 0 0 1-.151-.267l-.172-.292c-.03-.067-.078-.147-.135-.245l-.006-.008c-.044-.074-.095-.158-.148-.254a2.943 2.943 0 0 0-.217-.388 3.57 3.57 0 0 0-.161-.27 5.924 5.924 0 0 1-.148-.25l-.061-.108a1.872 1.872 0 0 0-.09-.175 10.589 10.589 0 0 0-.347-.656l-.028-.047-.07-.11.128-.16.13-.155.385-.46.07-.08a1.26 1.26 0 0 1 .065-.073l.491-.512a6.46 6.46 0 0 0 .49-.454 52.707 52.707 0 0 1 1.577-1.457 3.265 3.265 0 0 0 .733-.81l.005-.006a.585.585 0 0 0 .033-.167.713.713 0 0 0-.028-.202.943.943 0 0 0-.204-.397 2.777 2.777 0 0 0-.33-.367c-.873-.833-2.5-1.091-4.294-.683-1.041.24-2.436.865-3.117 1.37l-.564.337c-.612.417-2.215 2.049-2.676 2.74-.324.486-1.615 2.66-3.354 5.642-.092.045-.196-.142-.445-.72a3.623 3.623 0 0 0-.236-.485l-.036-.058a14.32 14.32 0 0 0-.44-1.064 32.495 32.495 0 0 0-.613-1.324c-.161-.405-.39-.903-.554-1.209l-.025-.057a33.757 33.757 0 0 0-.493-1.176l-.074-.162a6.827 6.827 0 0 0-.17-.353l-.029-.045-.038-.056a3.379 3.379 0 0 0-.993-1.383l-.031-.031a2.88 2.88 0 0 0-.428-.284 6.408 6.408 0 0 0-.876-.377 2.628 2.628 0 0 0-.57-.096c-.349-.026-1.301.172-1.757.398-1.116.567-1.863 1.8-1.863 3.073M22.19 2.434c-.097.032-.184.07-.254.11a.796.796 0 0 0-.139.094.895.895 0 0 0-.067.046c-.84.624-.663 1.965.267 2.423a1.46 1.46 0 0 0 1.63-.213 1.434 1.434 0 0 0 .383-1.586.473.473 0 0 0-.034-.128.836.836 0 0 0-.073-.133 1.16 1.16 0 0 0-.106-.134c-.112-.145-.289-.28-.524-.404a1.266 1.266 0 0 0-1.082-.075Z"/><path d="M18.108 7.03c-.26.261-1.016.726-1.67.992-1.711.708-2.994 1.549-3.456 2.29-.193.317-.268.35-.403.192a4.081 4.081 0 0 1-.377-1.9 5.402 5.402 0 0 1 .386-2.206 5.57 5.57 0 0 1 .559-1.001l.045-.073c.084-.15.184-.267.21-.292l.005-.007.006-.007c.057-.095.242-.29.516-.535A4.629 4.629 0 0 1 16.387 3.3c1.334-.111 2.22.582 2.53 1.62a.2.2 0 0 1 .019.076c.028.106.05.215.067.328.02.126-.015.337-.073.537l-.006.042-.006.022a.118.118 0 0 1-.023.05c-.057.165-.13.31-.195.375a1.62 1.62 0 0 1-.145.212 3.147 3.147 0 0 1-.29.319l-.075.074zM8.034 10.678c-.015.427.06.807.185 1.067.062.162.156.371.167.366.271.473.662.87 1.133 1.15l.168.083c.05.024.094.044.132.06a.6.6 0 0 0 .085.031c.034 0 .059-.2.067-.433v-.097l.008-.138a6.42 6.42 0 0 1 .06-.598l.035-.212a7.055 7.055 0 0 1 .4-1.145c.168-.367.244-.658.244-.958.008-.383-.068-.483-.32-.766-.243-.275-.586-.308-.98-.275-.528.05-1.334.716-1.384 1.865"/></g><defs><clipPath id="a"><path fill="#fff" d="M.066 0h32v32h-32z"/></clipPath></defs></svg>