<svg xmlns="http://www.w3.org/2000/svg" version="1.1" viewBox="0 0 32 32"><path d="m25.579 23.567c-0.35448-0.11164-0.67672-0.30729-0.93931-0.57029-0.33547-0.36063-2.3315-3.9837-2.3315-4.2436 0-0.14257 0.033546-0.20967 0.10903-0.17612 0.075481 0.02516 0.31031-0.41933 0.72964-1.3922 0.70448-1.6018 0.72125-1.6186 1.3083-1.1741 1.6018 1.2245 3.0276 1.8535 4.5204 1.9792 0.629 0.058706 0.79673 0.13418 0.79673 0.36901 0 0.083866 0.26838-0.29353 0.30192-0.27676 0.041935 0.008387-0.629 1.5515-1.2077 2.8431-0.98963 2.2308-1.0651 2.3734-1.3503 2.5076-0.33547 0.16773-1.5767 0.2516-1.9373 0.13419z"/><path d="m4.621045 23.500214c-.369013-.150957-.377399-.159344-.888985-1.325089l-.863825-1.945701-.519973-1.224453.570293.461265c.394172.008389 1.283157-.201279 2.239236-.536745l.947692-.30192c.301919-.092251.436105-.167732.436105-.268371 0-.083867.083866-.167735.192893-.192894.10064-.025162.536745-.192894.964465-.385785.427719-.192894.830278-.343853.897371-.343853.067094 0 .1258-.033546.1258-.083868 0-.041933.05032-.083866.109027-.083866s.243212.30192.394173.67932c.310306.72125.394172.838665.511585.654157.05032-.083868.07548-.041933.07548.125799 0 .285149-1.970863 3.799157-2.381809 4.226872-.444492.478041-.838665.629-1.685717.662548-.570292.016773-.847051-.008387-1.123811-.117416z"/><path d="m25.663153 23.558922c0-.041931-.109024-.083866-.251599-.083866-.209667 0-.2516-.033547-.2516-.209668 0-.184505-.033546-.209665-.293533-.209665-.285145 0-.293532-.008386-.293532-.310306v-.310305l.318692.30192c.343853.335466.679319.519972 1.090265.612225.369015.075479.360626.293531-.02516.293531-.159346 0-.293533-.033545-.293533-.083866z"/><path d="m26.141193 23.424736c0-.058704.561905-.05032.771571-.117413.167734-.058708.461265-.17612.637386-.301921.35224-.234826.419332-.218052.343853.092254-.041933.150959-.109028.209667-.259987.209667-.125799 0-.209665.05032-.209665.117413 0 .125799-.251601.218052-.60384.218052-.150959 0-.670933-.134186-.670933-.218052zm-9.753677-1.761196c-.201279-.360626-.343851-.528359-.419332-.503201-.083867.033547-.117413-.025158-.117413-.176118 0-.394171 1.861837-3.606261 3.069515-5.291977.670933-.939305.788346-1.065106 1.023171-1.090266.22644-.02516.268373.008387.318693.201281.033546.125799.02516.276758-.016773.335466-.485302.628245-.917319 1.295906-1.291544 1.996022 0 .067092-.07548.268375-.159346.444492-.604378 1.351557-1.158279 2.72512-1.660559 4.117845-.02516.100642-.075479.184508-.117412.184508s.335466 1.190906.335466 1.283157c0 .32708-.662546-.956077-.964466-1.501209zm7.598307.176119c0-.360625.117412-.3774.293533-.041933.167732.318691.159346.335466-.083866.335466-.184507 0-.209667-.033546-.209667-.293533z"/><path d="m23.56649 21.084862c0-.360628.117413-.369015.293533-.033547.167733.318692.436106.696091.192893.696091-.184506 0-.486426-.402559-.486426-.662544zm-.419332-.754799c0-.234829-.033547-.293533-.159346-.293533-.176121 0-.259987-.159348-.259987-.511588 0-.184505-.041933-.243211-.167732-.243211-.100641 0-.184507-.07548-.218054-.201279-.067093-.27676-.083866-.570293.041933-.536747.117413.041933 1.182518 1.937317 1.182518 2.029568 0 .025161-.092253.050321-.209665.050321-.184507 0-.209667-.033544-.209667-.293531z"/><path d="m25.327686 23.475056c0-.041933-.075477-.083866-.167732-.083866-.092253 0-.167732-.058709-.167732-.125802 0-.06709-.058708-.125797-.134188-.125797-.209665 0-.369013-.218056-.369013-.494812 0-.310308.067093-.318695.243214-.067097.2551.306731.584143.543408.956078.687706.335466.083869.285148.293534-.067093.293534-.159346 0-.293534-.033547-.293534-.083866zm-8.520837-1.241223c-.10064-.234829-.176119-.511587-.058707-.587066.041933-.033549.10064-.134186.134188-.226441.092253-.343853 1.37541-3.514007 1.635397-4.059139.075479-.159348.142572-.35224.142572-.427719.124138-.279953.275847-.546848.452879-.796732.243214-.369013.343853-.55352.226441-.419333-.117415.142573-.494814.670933-.821892 1.190905-.335466.519972-.637386.939304-.670933.947691-.041933 0-.067093-.134186-.067093-.293533 0-.251599.02516-.293532.209666-.293532.159345 0 .218053-.058706.285146-.310306.05032-.176119.092253-.385786.092253-.461266 0-.083866.041933-.150961.092255-.150961.134185 0 .318691-.259987.327077-.436104 0-.083868.041934-.150961.083869-.150961.050319 0 .083866-.050319.083866-.117412s.058706-.134186.125799-.167732c.067093-.02516.125799-.100642.125799-.167734 0-.058707.058706-.134186.125801-.167733.067093-.02516.125799-.083866.125799-.125799 0-.100641.469652-.595453.561905-.595453.092255 0 .511587.838665.587067 1.006397.02516.067095-.176119 0-.209667 0-.033547 0-.1258.125801-.192892.27676l-.897374 1.77797c-.419332.830278-.788343 1.62701-.821891 1.761196-.07548.318695-.637385 1.736038-.939305 2.365038-.327078.679315-.452879.863824-.612226.863824-.075478 0-.083866-.134187-.125799-.234825zm6.843507-.981239c0-.360626.083868-.369013.276758-.05032.184508.318693.184508.343853-.067091.343853-.184507 0-.209667-.033546-.209667-.293533z"/><path d="m23.231024 20.497795c0-.360626.092254-.377399.276758-.05032.352241.620614.259987.486426-.067091.343853-.167734-.075481-.209667-.033546-.209667-.293533z"/><path d="m2.784368 19.810089c-.109026-.125799-.360626-.587065-.561905-1.039944l-.486426-1.157358.536746.30192c1.006398-.117412 5.275203-2.172144 5.275203-2.53277 0-.092253.310306-.452879.352239-.385786.016774.016775.343854.721252.612226 1.333477.536746 1.216064.603839 1.476051.3774 1.400572-.295508.035871-.582305.123899-.847052.259987l-.998012.427717-.293532.117416.377399-.041935c.494812-.050319.293532.067093-.570293.32708-.352239.100639-.872211.268372-1.148971.369011-.536746.184509-2.012796.595453-2.222462.620613-.067094.008387-.142574.058708-.167733.117413-.02516.067093-.109027.016773-.234827-.117413z"/><path d="m2.180529 18.342426c0-.083866-.05032-.150961-.109026-.150961-.10064 0-.285146-.419332-.679319-1.341863-.016773-.025162.352239-.016773.746412-.159348 1.383798-.503197 2.599862-1.165745 3.773993-2.054727.712865-.553521.880599-.704481.880599-.838665 0-.075482.058706-.134188.125799-.134188.067094 0 .1258-.033546.1258-.083866 0-.041933.05032-.083866.109027-.083866.109026 0 .847052 1.618623.930918 2.054729.05032.226439.041933.234825-.058707.109026-.142573-.176121-.226439-.192894-.226439-.033546 0 .318691-3.262408 1.954088-5.031991 2.515993-.251599.083868-.486426.192894-.519973.251602-.041933.058706-.067093.041931-.067093-.05032z"/><path d="m6.457722 23.324097c0-.033549.109026-.125799.243212-.209666.125801-.075483.3774-.276762.545133-.452882l.301919-.310303v.276758c0 .293531-.159346.511587-.369012.511587-.07548 0-.134187.058707-.134187.125797 0 .083869-.092253.125802-.293532.125802-.159347 0-.293533-.033547-.293533-.067093z"/><path d="m1.199291 16.480589-.335466-.763186.22644-.050319c.738025-.159346 2.356648-1.006399 3.27918-1.719265.612226-.469651 1.75281-1.618622 1.75281-1.761196 0-.067093.041934-.117413.083867-.117413.05032 0 .083867-.058706.083867-.125799 0-.067095.050319-.117413.109026-.125801.033546 0 .083867.033546.184506.20128.167734.318694.444493.964465.738026 1.70249l.209666.478039c.041933.109026-.10064-.033546-.15096-.033546-.050319 0-.083866-.058707-.083866-.1258s-.058707-.125799-.1258-.125799-.1258.058706-.1258.134186c0 .134186-.167733.285147-.880598.838665-1.081878.821892-2.465676 1.593464-3.514007 1.962477l-.679319.251598c-.134186.058708-.293533.117413-.343853.125801-.05032.016773-.243212-.318693-.427719-.746412z"/><path d="m22.023 29.505c-0.958-0.25684-1.7679-0.89689-2.2392-1.7696-0.46965-0.80512-0.47804-0.82189-0.17612-0.82189 0.13419 0 0.51159-0.1258 0.82189-0.26837 0.61746-0.29849 1.3164-0.38402 1.9876-0.24321 0.669 0.40278 1.2576 0.92598 1.736 1.5431l0.3774 0.47804 0.46127-0.05032 1.3167-1.8031c0.13418-0.15934-0.36063 1.0064-1.1322 2.0463-0.8467 0.78673-2.0204 1.1176-3.1534 0.88899zm3.5559-6.03c0-0.17612 0.083866-0.20128 0.40256-0.11741 0.30192 0.083866 0.22644 0.28514-0.10903 0.28514-0.23482 0-0.29353-0.033545-0.29353-0.16773z"/><path d="m16.974583 22.737032c-.251601-.469652-.251601-.478041-.100642-.637386.226441-.243212 1.20768-2.465678 1.358639-3.086287.092253-.394173 1.769583-3.748835 1.928929-3.85786.067094-.050322.067094-.067095 0-.067095-.050318 0-.092251-.058707-.092251-.125799 0-.251599.201278-.117413.461265.318693.251599.410946.293532.729639.10064.729639-.117413 0-1.828291 3.539165-1.886998 3.899791-.14306.70929-.403856 1.389626-.771572 2.012799-.285146.595451 1.677332 5.58551 1.710877 5.63583zm7.766039.226438v-.2516l.2516.176119c.369011.259987.377399.335468.05032.335468-.276761 0-.30192-.016775-.30192-.259987zm2.784368.067093c0-.025161.201281-.100639.360626-.268371l.30192-.318693-.150961.352237c-.092252.226443-.184505.343855-.293533.343855-.083866 0-.218052-.092254-.218052-.109028zm-3.455301-1.02317c0-.369013.075479-.369013.318693 0l.176119.327078-.243212-.033545c-.234825 0-.2516-.025162-.2516-.293533zm-1.174132-2.096665c0-.36901.07548-.36901.318694 0l.184507.32708-.2516-.033546c-.234825 0-.251601-.02516-.251601-.293534zm-.419332-.754798c0-.369011.075479-.369011.318693 0l.218052.385788-.285145-.092255c-.234825 0-.2516-.02516-.2516-.293533z"/><path d="m8.093119 15.792883c-.075481-.117413-.117414-.234825-.10064-.259985.025159-.02516.109026.075479.184506.218052.159346.318693.117413.343853-.083866.041933z"/><path d="m6.432561 28.112873c-.033546-.025158-.058706-.159346-.058706-.293533 0-.209666.02516-.234825.293533-.234825.27676 0 .293533.016775.293533.293533 0 .268373-.025161.293533-.234827.293533-.134186 0-.268372-.02516-.293533-.058708z"/><path d="m1.039945 16.019323c.033546-.041933 0-.050319-.041934-.067093-.067093-.025159-.679318-1.375412-.645772-1.408958.02516-.02516.981238-.410946 1.618624-.65416.142573-.058706.268373-.125799.293533-.150959.02516-.033546.285146-.234825.587065-.461265 1.039945-.763186 2.172143-1.97925 2.297943-2.465675.117413-.478041.184506-.486426.587066-.092255.403998.401066.700995.89702.863825 1.442507.025159.19289.008387.234825-.092254.19289-.083866-.033545-.134186-.008385-.134186.075481 0 .150961-1.123811 1.283158-1.75281 1.769583-.670932.519974-1.618624 1.065105-2.415356 1.400572-.427719.176119-.696092.335466-.696092.410946 0 .109026-.008386.109026-.083866 0-.05032-.07548-.109027-.092255-.142573-.041933-.083867.109026-.30192.159345-.243213.050319z"/><path d="m8.445357 29.513445c-.410945-.109026-1.14897-.486425-1.14897-.587065 0-.050321.134186-.083868.293533-.083868.159346 0 .293532.02516.293532.067093 0 .033548.369013.05032.813506.041933.578679-.016771.880598.008387 1.056717.100641.11572.060854.24022.103299.369013.1258.159347 0 .134187.22644-.033546.293533-.251599.092254-1.308318.125799-1.643785.041933z"/><path d="m24.740622 28.800579c0-.092253-.058709-.117412-.192893-.083866-.159347.041933-.268373-.041933-.637386-.494812-.464889-.611244-1.035877-1.133938-1.685716-1.543144-.167735-.067093-.436108-.10064-.637387-.075482-.402557.041935-1.341863.452881-1.576689.696095-.184507.176121-.369014.226436-.352241.083866 0-.05032-.025158-.100641-.067091-.109028-.067095-.016771-.310309-.419332-1.081879-1.803131l-.318693-.57029h.259987c.167732 0 .251598.041933.251598.1258 0 .134187.134188.17612.184506.058708.016773-.033549.343855-.327082.738025-.637387.67932-.561906.70448-.587064.67932-.897373-.016773-.318691-.016773-.327078.259987-.327078.259985 0 .310304.058707.738025.721253.251599.402557.712864.956077 1.014784 1.249611.696091.654155 1.157358.830276 1.912155.74641.360629-.041933.511588-.025158.511588.041933 0 .050322.041933.092253.100641.092253.050318 0 .276758.150959.494812.335468.226438.184506.486423.335465.603836.335465.10903 0 .276762.016775.30192.041933-.142571.259987-.670931 1.367023-1.081877 1.794744-.452879.486427-.419332.419331-.419332.218052zm-7.296387-5.250044c-.30192-.519972-.360626-.813503-.201279-.956077.504648-.872694.912422-1.797923 1.216065-2.759207.050319-.268376.251598-.821892.452879-1.224453.192892-.410946.335464-.763186.310304-.788345-.02516-.025158 0-.05032.050322-.05032.058706 0 .092251-.02516.083866-.058706-.033548-.092253.905758-2.037957 1.090265-2.239235.150959-.167734.176119.016773.427717.419332.251601.402558.251601.410946.100642.662544-.478276.808987-.928625 1.63416-1.350253 2.474062-.36901.729639-.444492.947691-.427719 1.28316.016776.444492-.167732 1.056717-.603838 2.004409-.159345.352238-.318693.754799-.352239.888983-.023842.13431-.084858.259245-.176121.360628-.067091.05032-.117413.184506-.117413.293534 0 .343853-.209665.218052-.503198-.310309zm9.233703-.033544c.016772-.083868.1258-.167734.234826-.18451.117412-.016771.2516-.067093.30192-.109024.058708-.041935.125799-.058708.150959-.025159.033548.025159.058708.008384.058708-.041934 0-.058708.041933-.100641.092252-.100641.058705 0 .134188-.083866.209668-.142574.150957-.125799.109024-.125799.117412.125799 0 .184509-.050321.293533-.142574.327084-.083866.033546-.176119.09225-.201279.134182-.033546.041935-.234825.100643-.452879.125801-.343853.033548-.394174.025161-.369013-.109024zm-2.272783-.721255c0-.050319-.058706-.142572-.125799-.209665-.125799-.134188-.176121-.704479-.058708-.704479.050321 0 .201282.209667.55352.779957l.134186.22644h-.251599c-.134187 0-.2516-.041931-.2516-.092253zm-.670931-1.37541c0-.369011.075478-.369011.318692 0l.20128.343853-.268373-.050319c-.234825 0-.251599-.025158-.251599-.293534zm-.419332-.754799c0-.234825-.033547-.293533-.167734-.293533-.134188 0-.167733-.058704-.167733-.293531 0-.159346.025158-.293534.05032-.293534.07548 0 .360624.369013.369013.461266 0 .050321.092253.226438.209665.402559l.243214.385786-.285147-.075479c-.234825 0-.251598-.02516-.251598-.293534zm-.754799-1.341863c0-.343853.041933-.360627.259987-.10064.209665.259985.201278.394171-.050322.394171-.184507 0-.209665-.033544-.209665-.293531z"/><path d="m24.287743 22.586071c-.025162-.075479-.05032-.243214-.05032-.377399 0-.184506-.041933-.243214-.167734-.243214-.134186 0-.167732-.058706-.167732-.301918 0-.268372.016775-.293533.134187-.192894.075478.058706.19289.2516.259985.427721.067093.176117.05032.335466.10064.335466.041933 0 .159345.025158.134187.067093-.02516.05032-.016775.083866.025158.083866s.100641.075478.125799.167733c.033549.134185 0 .167732-.150957.167732-.109026 0-.218054-.058708-.243213-.134186zm-.805119-1.685717c0-.293533.008387-.30192.159346-.159347.083866.083868.159345.226442.201278.310308.058709.117413 0 .159344-.159345.159344-.176121 0-.201279-.041931-.201279-.310305zm-.419332-.754799c0-.301919 0-.301919.150959-.142572.083866.083866.176118.226441.209665.310307.041933.109026.008388.14257-.150959.14257-.184508 0-.209665-.033544-.209665-.310305zm-.419333-.754798c0-.30192 0-.30192.150959-.142573.083866.083866.176119.226441.209665.310307.041933.109026.008387.142572-.150959.142572-.184507 0-.209665-.033546-.209665-.310306zm-.419332-.696093c0-.226439-.134188-.578678.150959-.167732l.192894.285145c.033546.117414.008386.134187-.142575.134187-.167732 0-.201278-.041933-.201278-.2516z"/><path d="m29.487 18.82c-0.025162-0.067093-0.025162-0.17612 0-0.23483 0.067093-0.19289-0.14257-0.28515-0.76319-0.34385-1.4928-0.1258-2.9186-0.7548-4.5204-1.9793l-0.33547-0.25999-0.28514 0.44449c-0.15096 0.24321-0.26837 0.40256-0.2516 0.35224 0.016771-0.05032 0.4361-1.0232 0.94769-2.1638 0.72964-1.6522 0.94769-2.0631 1.0735-2.0631 0.092253 0 0.38579 0.24321 0.66255 0.54513 0.67091 0.72473 1.5087 1.2746 2.4405 1.6019 0.60272 0.20922 1.244 0.28366 1.8786 0.21805l1.1909-0.016774-0.15096 0.36063c-0.49461 1.2065-1.0431 2.3902-1.6438 3.5476-0.14258 0.15096-0.18451 0.15096-0.24321-0.008387z"/><path d="m.645772 14.853579c-.041933-.058707-.10064-.083867-.134186-.058707-.083867.041933-.310306-.494812-.419333-1.048332-.142573-.578678-.117413-.670931.109027-.670931.285146 0 1.056718-.335466 1.056718-.461267 0-.058707.184506-.226439.402559-.369011.528327-.355593.998022-.791334 1.392184-1.291546.218053-.259985.310306-.469652.352239-.79673l.067094-.419333c.176119-.041933.813505.083867.754798.117413-.276759-.125799.40256.117413.838665.352238.142573.075481.35224.218053.42772.285146.176119.167733.109026.251601-.016773.385786-.058707.058707-.092254.150961-.058707.192894.067093.109026-.679319 1.023171-1.283158 1.585076-1.023171.939306-1.299931 1.18252-1.232838 1.073492.067094-.117413-.176119.041933-.343852.22644-.041933.041933-.184507.125799-.30192.167733-1.232838.478038-1.50121.603837-1.517984.712865-.02516.10064-.041933.10064-.092253.016774z"/><path d="m9.8543 29.446c-0.093406-0.017519-0.18202-0.054682-0.25999-0.10903-0.13419-0.10902-1.1238-0.16773-1.4173-0.083866-0.44449 0.1258-1.3083-0.46965-1.8115-1.2412l-0.19289-0.45288 0.31031-0.1258c0.25684-0.16352 0.50332-0.34278 0.73802-0.53675 0.21805-0.17612 0.43611-0.31869 0.48643-0.31869s0.092253-0.058708 0.092253-0.1258c0-0.092252 0.092253-0.1258 0.36063-0.1258 0.86382 0 1.8786-0.8135 2.7424-2.1973 0.41933-0.67093 0.48642-0.73802 0.72964-0.73802 0.14257 0 0.27676 0.050319 0.30192 0.10902 0.058706 0.15096-0.016773 2.1721-0.1258 3.1366-0.10064 0.92253-0.050321 1.1154 0.28514 1.1154 0.14257 0 0.13419 0.033544-0.092252 0.36062-0.53675 0.78835-1.6019 1.4509-2.147 1.3335z"/><path d="m25.914753 27.123249c0-.100639-.033546-.117413-.142574-.05032-.109026.058709-.243212-.008388-.603838-.335466-.251599-.226439-.511586-.410946-.570294-.410946-.058704 0-.109026-.025158-.109026-.058706 0-.041935-.22644-.05032-.503198-.041935-.628998.041935-1.216065-.150959-1.643784-.528357l-.32708-.285146.30192-.008387c.62957.129812 1.2775.144022 1.912155.041933.201281-.033546.629-.150959.947695-.268373.409287-.127993.830963-.212328 1.257998-.251601l.721248-.201278-.176117.436107c-.721252 1.694102-1.065105 2.323101-1.065105 1.962475zm-7.296387-1.551531c-.067093-.041933-.092254-.083866-.050319-.083866.050319 0 .008386-.058706-.083868-.125799-.083867-.067093-.117413-.125801-.07548-.125801.050322 0 .050322-.025158-.008387-.067091-.329271-.437811-.581674-.928438-.74641-1.450892-.025162-.201278.008387-.301921.117413-.385788.092252-.058704.184507-.226436.218052-.369011.033546-.142572.192894-.545131.352239-.897371.444492-.972853.595453-1.484438.55352-1.886997-.033548-.293533.02516-.486425.352238-1.148972.60384-1.241224 1.492825-3.128221 1.593464-3.128221.164429.199558.302542.419409.410946.654159.22644.410946.402561.60384.285147.738026-.531142.719874-1.023846 1.467329-1.476052 2.239235-.227596.413776-.364805.871136-.402559 1.341866.016775.125799.293533.670932.60384 1.224451.251007.438894.49703.880619.738025 1.32509.10064.184507.234826.402561.310307.486427.07548.083866.184504.259983.251598.385784.067093.1258.167735.259987.218054.293534.058706.033546.109026.20128.109026.369013 0 .301918 0 .301918-.176121.142572-.100637-.083866-.369011-.461266-.612224-.821892-.410946-.637386-.427719-.654159-.469652-.410946-.033547.192894-.209668.385785-.754799.821892-.310122.244116-.609526.501549-.897372.771572-.209667.218052-.192894.218052-.360626.109026zm7.153813-1.90377c-.226439-.033545-.276759-.07548-.276759-.234825 0-.184508.025158-.201279.218054-.1258.117413.05032.436104.083867.704478.083867.268373 0 .587066-.033547.704479-.083867.192894-.067092.218052-.058708.218052.117413 0 .167732-.05032.201279-.385786.251598-.402558.050322-.704478.050322-1.182518-.008386zm-.947691-.612225c0-.22644-.025158-.2516-.251599-.2516-.234825 0-.2516-.025158-.2516-.293531 0-.369013.07548-.369013.318691 0 .128546.187427.290613.349493.478041.47804.369013.243212.369013.318691 0 .318691-.268373 0-.293533-.016775-.293533-.2516z"/><path d="m7.380253 22.586071c0-.100639.285147-.536747.352239-.536747.033547 0 .067094.13419.067094.293533 0 .259987-.02516.293534-.209666.293534-.117414 0-.209667-.025158-.209667-.05032z"/><path d="m23.86841 21.915138c-.025162-.075479-.05032-.243213-.05032-.377399 0-.184506-.041933-.243212-.159345-.243212-.176121 0-.259987-.159346-.259987-.511587 0-.184506-.041933-.243212-.167734-.243212-.134186 0-.167732-.058706-.167732-.293533 0-.159346.033546-.293532.067092-.293532.067093 0 1.190905 1.937317 1.190905 2.046341 0 .117413-.402557.041935-.452879-.083866zm-1.224451-2.42374c0-.360626.083866-.369015.276758-.050322.184508.318693.184508.343853-.067093.343853-.184507 0-.209665-.033544-.209665-.293531zm-.419332-.771572.008386-.318695.201279.234829c.268375.301918.259987.39417 0 .39417-.184508 0-.209665-.033544-.209665-.310304z"/><path d="m6.524815 12.387903c-.184507-.184505-.184507-.234827-.033547-.234827.058706 0 .134186.083866.159347.184508.067093.234825.050319.243213-.1258.050319z"/><path d="m7.397026 22.510592c.243213-.369013.318693-.369013.318693 0 0 .268373-.016773.293531-.251599.293531h-.2516zm1.744424-2.935328c0-.117413.268372-.545134.335466-.545134.05032 0 .083866.134188.083866.293534 0 .259987-.025159.293531-.209666.293531-.117413 0-.209666-.016773-.209666-.041931z"/><path d="m0 13.226568c0-1.283157.746412-2.524381 1.861837-3.094675.553518-.276758 1.836676-.511587 1.886996-.352238.02516.058705.07548.184506.142573.167733.209667-.083866.142573.02516-.058706.293533-.117414.150959-.192893.318691-.167733.369013.075479.209665-1.006398 1.383797-1.694104 1.845062-.22644.159346-.419333.32708-.419333.385786 0 .125799-1.199291.662546-1.266384.561905-.033546-.05032-.05032.092255-.1258.167732-.100639.067095-.159346-.109024-.159346-.343851z"/><path d="m11.565192 27.861275c-.075479-.134186-.083867-.385784-.033546-.922533.041933-.402558.075479-1.216065.083866-1.80313.008387-.587066.033546-1.098649.067094-1.123811.092252-.100638.067093-.201279-.050321-.201279-.058706 0-.327079.335466-.587066.738024-.805118 1.266386-1.80313 2.029571-2.633407 2.029571-.285147 0-.343853.025158-.310307.1258.033547.083866 0 .125799-.092252.125799-.075481 0-.318694.142574-.536747.318693-.205893.175352-.42455.33514-.654158.478041-.142573.083866-.243213.201278-.218053.259985.033546.083868 0 .092254-.167734.008386-.150959-.067093-.318692-.343853-.628998-1.031559l-1.048332-2.532766c1.509597.2516 3.472073.109026 3.472073.109026.662547-.109026.15096-.545134.771574-.335467.704478.251599-.184508.82189.419332.419333.184505-.125801.419333-.083866.503199-.134188.092253-.041933.226439.184508.226439.134188 0-.050322.310306.209665.385786.150959.234826-.192892.32708-.536747 1.677331-2.843075.680754-1.17149 1.371278-2.337276 2.071503-3.497234.738026-1.182516.779959-1.232838 1.039944-1.232838.259986 0 .27676.016773.27676.27676 0 .142575-.10064.419335-.209667.60384-.117412.184506-.209666.419331-.209666.519972 0 .092253-.092254.377397-.209666.629-.100301.19236-.170986.398759-.209666.612224-.015747.14745-.061407.290135-.134187.419333-.243213.452879-.796732 2.079889-1.148972 3.354662-.208465.637382-.32702 1.300726-.352238 1.970861l-.008388.712866-.528357.93092c-.436108.763183-.561907.922531-.721253.922531-.117413 0-.243213-.07548-.30192-.192894z"/><path d="m22.283333 25.62204c-.478039-.360628-1.065106-1.15736-1.836676-2.499224-.863827-1.517982-1.090265-1.962477-1.123813-2.25601.074874-.551292.239173-1.086681.486427-1.585075.335466-.687706 1.266384-2.348263 1.375412-2.440518.150957-.125799.176119-.092251.528356.519974.184508.343853.369013.587067.293534.620613-.575413.688366-1.026636 1.471626-1.333477 2.314716-.165833.359158-.289656.736256-.369013 1.12381-.07548.461266-.067093.536745.142574.964466.125799.251599.276758.503197.335465.57029.050319.058708.100641.167734.100641.22644 0 .109026.469652.293534.738024.293534.050319 0 .100641.033546.100641.075479 0 .033547.327078 0 .738024-.083866.402561-.083868 1.098652-.184505 1.559917-.209665.67932-.050322.838665-.083868.863827-.201281.033546-.125799.058704-.033544.503199.109026.779958.251599 1.811515.30192 2.490833-.268371.234829-.201279.234829-.234829-.452877 1.274768-.461266 1.014786-.670933 1.350253-.670933 1.056719 0-.117412-.662544-.016771-1.383797.226441-.618368.244581-1.281355.356033-1.945705.327079-.226439-.033546-.360624-.025159-.327078.02516.025162.041931-.067093.075482-.201281.083866-.159345 0-.385786-.09225-.612224-.268371z"/><path d="m24.128 22.427c-0.075481-0.16773-0.14257-0.41094-0.14257-0.54513 0-0.19289-0.041933-0.2516-0.15935-0.2516-0.17612 0-0.25999-0.15935-0.25999-0.51159 0-0.1845-0.041933-0.24321-0.15934-0.24321-0.17612 0-0.25999-0.15935-0.25999-0.51159 0-0.1845-0.041933-0.24321-0.15935-0.24321-0.17612 0-0.25999-0.15935-0.25999-0.51159 0-0.18451-0.041933-0.24321-0.15934-0.24321-0.083867 0-0.18451-0.058707-0.20967-0.13419-0.075479-0.19289-0.058706-0.62061 0.016774-0.62061 0.041933 0 0.57868 0.92253 1.2077 2.0547 1.1238 2.0128 1.1406 2.0547 0.91414 2.0547-0.17612 0-0.25999-0.067093-0.36901-0.29353z"/><path d="m9.242089 19.390757c.293534-.620612.402561-.67932.402561-.234827 0 .259986-.025161.293533-.218053.293533-.117414 0-.20128-.02516-.184508-.058706z"/><path d="m20.731802 23.542149c-.226439-.385785-.545132-.930916-.696093-1.216065-.276758-.5032-.276758-.51997-.125799-.679317.083866-.10064.125799-.209668.100641-.251599.069035-.524799.230904-1.033127.478039-1.501213.125799-.243213.226439-.478039.226439-.528358 0-.167732.880598-1.920544.964464-1.920544.050322-.008385.184507.176121.30192.394173 2.423742 4.436538 2.826301 5.073923 3.430141 5.384231.159346.092253.259987.159344.209666.167733-.041933 0-.025158.041933.041933.092254.092254.067091.067093.075478-.125799.025158-.545132-.134186-2.07989.025162-3.438527.343853-.452879.109026-.511587.100641-.603841-.016773-.058705-.075481-.134184-.117413-.159346-.083866-.033545.033546-.117413.008385-.184506-.05032-.109025-.083866-.117412-.075481-.058706.02516.07548.125799.142573.503199.083866.503199-.016773 0-.218053-.310307-.444492-.687706z"/><path d="m4.931351 23.667948c-.184506-.02516-.234826-.083866-.234826-.234825 0-.184508.016773-.192892.251599-.109026.142573.041935.519972.067093.830279.050319.469652-.025159.654158-.083868 1.006398-.293533l.427719-.268372v.243212c0 .167734-.041933.2516-.1258.2516-.067093 0-.125799.033547-.125799.083867 0 .218053-1.257998.394172-2.02957.276758z"/><path d="m25.906366 23.56731c.058707-.041935.07548-.092254.041933-.109028-.041933-.025159-.025159-.025159.033547-.008384l.234827.025158c.067093 0 .117412.041935.117412.083866 0 .050321-.125799.083866-.268373.083866-.192892 0-.243214-.025158-.159346-.075478z"/><path d="m31.156 15.432c0.092253-0.15935-0.19289-0.20967-1.2161-0.22644-0.58842 0.034603-1.178-0.045143-1.736-0.23483-0.93288-0.32507-1.7712-0.87528-2.4405-1.6018l-0.5032-0.54513-0.17612 0.22644-0.2516 0.40256 0.15096-0.38579c0.27676-0.77157 0.87221-1.8786 1.2245-2.2476 0.76134-0.80229 1.8671-1.1813 2.9605-1.0148 1.824 0.29633 3.0695 2.0057 2.7928 3.8327-0.10903 0.58706-0.48643 1.5348-0.61223 1.5348-0.050317 0-0.067093 0.050319-0.041933 0.11741 0.025162 0.067093-0.008384 0.14258-0.075479 0.16773-0.067093 0.025159-0.10064 0.016775-0.07548-0.025158z"/><path d="m9.476916 25.060133c-.585232-.062984-1.172783-.102154-1.761197-.117413-.763185-.025159-1.62701-.092254-1.92893-.150959-.301919-.050321-.587065-.083866-.645772-.075481-.058706.016773-.142573-.058706-.192893-.159346-.058706-.092254.117413.40256.083867.40256-.058707 0-.947692-2.012797-.989625-2.096663 0-.008386.192893.07548.444492.234825.514129.341114 1.15317.436356 1.744424.259987.763185-.218052 1.081878-.60384 2.297942-2.734049 1.232838-2.180528 1.367025-2.365034 1.367025-1.895384 0 .310307-.083867.469655-.259986.469655-.1258 0-.159347.058704-.159347.293533 0 .201279-.041933.293531-.1258.293531-.067093 0-.125799.07548-.125799.159346 0 .2516-.092254.427719-.218053.427719-.067094 0-.117413.075481-.117413.159348 0 .251598-.092253.427719-.218053.427719-.067094 0-.117414.075479-.117414.159345 0 .251601-.092252.427721-.218053.427721-.067093 0-.117412.083866-.117412.201279 0 .184505.033546.201279.738025.251598.402559.033547 1.090265.109028 1.526371.176121.444492.067093.947691.100639 1.115424.067093.285145-.041935.343852-.100639.821892-.939304.285146-.486428.545132-.905758.578679-.93092.033546-.025158.083867-.125799.117412-.226439.033548-.109025.100641-.192892.142574-.192892s.07548-.050321.07548-.117412c0-.067095.050321-.176121.117412-.234829.058708-.067093.142575-.201279.167734-.301918.033547-.100639.10064-.184506.142573-.184506.041934 0 .07548-.050321.07548-.117412 0-.067095.05032-.176121.117412-.234829.058708-.067093.142574-.201279.167733-.301918.033548-.100639.100642-.184506.142575-.184506s.075479-.058708.075479-.125801.041933-.125801.083866-.125801c.050321 0 .083867-.050319.083867-.117412s.05032-.176119.109026-.234825c.05032-.058707.167733-.251599.259986-.419333.083866-.167734.226441-.385786.310307-.478039.092252-.092252.159346-.209665.159346-.259987 0-.041933.041933-.083866.083866-.083866.050321 0 .083868-.058706.083868-.125799 0-.067095.041933-.125801.083866-.125801.05032 0 .083866-.058706.083866-.125799s.041934-.125799.083867-.125799c.05032 0 .083866-.058707.083866-.125801 0-.067093.041933-.1258.083867-.1258.05032 0 .083867-.058706.083867-.125799 0-.075479.058706-.150961.125799-.176121.067093-.033546.125799-.100639.125799-.167732s.041934-.117414.083867-.117414c.050321 0 .083868-.058707.083868-.125799 0-.07548.058706-.150959.125799-.176121.067093-.033545.125799-.10064.125799-.167732 0-.067093.041933-.117413.083866-.117413.050322 0 .083868-.05032.083868-.117413s.067093-.17612.150959-.234827c.07548-.058706.192894-.20128.2516-.318693.259985-.486425.603838-.754797.981238-.754797.201278 0 .27676.05032.360626.243212.150961.343853.536745.511585.922531.410946.176119-.041933.469652-.100639.670933-.125799.343851-.05032.35224-.041933.35224.201278-.012499.157492-.074099.307091-.176121.427721-1.329575 1.67504-2.510954 3.46254-3.530779 5.342297-2.172144 3.883018-3.866247 6.994465-3.98366 6.994465-.033547 0-.645772-2.063116-.603839-2.163754.041933-.109028.603839-.696094.570292-.788345-.058707-.159348-.872212.343851-.704479.125801.067093-.075483 1.174132-2.130213 1.241225-2.390198.417609-1.110199.902128-2.194065 1.450891-3.245634.352239-.662546 2.214075-1.207678 2.214075-1.257997 0-.041935.041933-.083866.083866-.083866.050322 0 .083867-.075482.083867-.167735 0-.092252.033546-.167732.075479-.167732.299006-.418913.528399-.883362.679319-1.37541 0-.075481.041934-.134188.092255-.134188.050318 0 .067091-.075479.033547-.167732-.033547-.092254-.016774-.167734.033544-.167734.050322 0 .092255-.075479.092255-.176119 0-.27676.595453.150959.754799.218052.109026.041933.083866 2.901783-.360627.083868-.025159-.150961-.461265.410944-.494812.318691-.041933-.125799.888985.058707.469653.570294-1.258 1.543144-3.639807 2.172142-5.904204 6.071934-1.719263 2.952102-1.97925 3.337886-2.188915 3.287569-.083867-.02516-.159347-.008387-.159347.041933 0 .041935-.033546.050319-.083867.02516-.041933-.02516-.083866-.008387-.083866.033546 0 .100641-.1258.100641-.670932 0z"/><path d="m9.451756 13.067221c-.470736-.281889-.86072-.68054-1.132198-1.157357-.016773.008387-.251599-.536747-.218053-.55352l.981239.209667h.956077l-.067093.40256c-.033546.218052-.067093.595451-.067093.838665-.008386.234827-.033547.436105-.067092.436105-.041934-.008386-.209667-.083866-.385787-.17612z"/><path d="m7.13704 22.871216c.159347-.159346.763185-1.115423 1.341865-2.130209 2.323103-4.03398 4.151393-7.153813 4.545565-7.749266.461266-.696092 2.063115-2.339874 2.675341-2.759207l.654159-.394174-.251599.360628c-.05291.277391-.15214.543898-.293533.788345-.327314.590027-.497688 1.254198-.494812 1.928929.083866.419332.352239.872211.628999 1.031557.243212.142574.259986.142574.771571-.109024.645773-.318693.821893-.427721.964466-.612227.067093-.092253.218052-.150959.402559-.150959.268372 0 .285145.016772.276758.276758-.008386.142575-.025159.201281-.050319.117413-.016774-.07548-.067093-.142572-.10064-.142572-.343853 0-2.507609 3.170154-4.746845 6.918987-1.434117 2.415354-1.710876 2.85985-1.593463 2.541155.083866-.209668-.025161-.352238-.167733-.234825-.092254.075479-.310307.067092-.897371-.033547-.835977-.142149-1.678464-.24291-2.524383-.30192-.159346 0-.327079.100641-.561906.360624-.11448.138194-.250395.257119-.402559.352242-.033547.008387-.15096.058708-.259986.117413-.159347.083866-.134187.050319.083866-.176121zm9.46853-3.086287c.052931-.121566.123586-.234617.209665-.335466.025162 0-.033544.150959-.125799.335466-.052931.121567-.123587.234618-.209665.335467-.025162 0 .033544-.150959.125799-.335467zm.419332-.754799c.052931-.121564.123587-.234617.209668-.335466.025159 0-.033547.150961-.125802.335466-.05293.121567-.123586.234618-.209665.335467-.025162 0 .033545-.150959.125799-.335467zm.343853-.603838c.192892-.360626 1.031557-1.702491 1.308318-2.088275.150959-.218054.27676-.410946.27676-.444493 0-.033548.150959-.259987.335466-.5032.184505-.243214.335464-.511586.335464-.587065 0-.075482.041935-.117415.083869-.092253.075479.05032.117412-.083868.109025-.352239-.008386-.058707.033547-.109028.07548-.109028.117414 0 .318693-.226439.259987-.285145-.083866-.083866-.209667-.058708-.150961.033546.033546.05032-.05032.058707-.218052.02516-.184507-.033546-.2516-.02516-.218054.041933.041933.05032 0 .067093-.109026.041933-.218054-.058706-.218054-.27676 0-.27676.092253 0 .167732-.033544.167732-.083866 0-.041933.041935-.083866.092255-.083866.198912-.055578.392552-.128544.578678-.218054.439488-.193777.870402-.406437 1.291544-.637384.125799-.150961 1.207678-1.174132-.679317.796732-.083868.083866-.838665 1.006397-.939305 1.115425-.310308.335466 0-.083866 0-.067093-.008388.033544-.2516.377397-.545133.77157-.620613.838665-1.224451 1.727652-1.719263 2.58309-.119278.208931-.250904.410566-.394175.603838-.025158 0 .008389-.083866.058708-.184506z"/><path d="m9.837543 11.960184c.050319-.134186-.746413-.184507-.914146-.05032-.092253.07548-.117413.067093-.117413-.016775 0-.092251-.016773-.092251-.067093-.016773-.058707.083868-.117413.083868-.293534 0-.285144-.125799-.503198-.704477-.478038-1.408956.050319-1.157359.855438-1.828289 1.383797-1.878611.394173-.033545.738026 0 .981239.27676.251599.285147.327079.385786.318693.771572 0 .30192-.075481.595453-.243214.964464-.144383.323433-.264914.656994-.360625.998013-.058707.259987-.142574.469652-.176121.469652-.041933 0-.058706-.05032-.033545-.109026z"/><path d="m12.512883 10.291239c-.276069-.598303-.405449-1.253826-.377398-1.912155-.026774-.759549.1046-1.516373.385786-2.222464.242368-.568047.576727-1.092253.989625-1.551529.041933 0 .075479.134186.075479.293532 0 .243213-.033546.293533-.184506.293533-.142573 0-.159347.02516-.083866.100641.058706.058704.100639.167732.100639.251598 0 .3774 1.67733 1.165745 2.801142 1.316704.637386.092253.670931.083866 1.023172-.117412.192892-.117413.469652-.209668.612225-.209668.243213 0 .259987-.025157.259987-.293531 0-.192892.041933-.293533.117412-.293533.058706 0 .134186-.109026.167732-.251601.041933-.209665.083867-.251598.30192-.251598.134188 0 .058707-.863825.058707-.821892.360626-.041933-.192892 1.509598-1.065104 2.071503-.100639.041933.452877-.109026.436106-.02516-.058706.201279-.981239.805119-1.761198 1.12381-1.710876.712866-2.994034 1.559919-3.4553 2.30633-.192894.318691-.268372.352241-.40256.192892z"/><path d="m18.2829 13.453007c0-.150959-.176121-.167732-.318693-.02516-.07548.075481-.10064.041933-.10064-.167732 0-.251601.016774-.268374.293534-.268374s.293533.016773.293533.293534c0 .159345-.033546.293533-.083868.293533-.041933 0-.083866-.058706-.083866-.125801z"/><path d="m16.144304 7.146244c-.45536-.068794-.904198-.175392-1.341864-.318691-.805119-.293534-1.610237-.813505-1.65217-1.065106-.016774-.109026-.067093-.192892-.1258-.192892-.05032 0-.134187.176121-.167733.142575-.033547-.041933.016773-.251601.050319-.268374.033547-.008388.067094-.041933.058707-.075479-.008387-.033547.083867-.167735.159347-.293534.083866-.150961.184505-.268373.209666-.293533.067093-.07548.30192-.343853.452878-.343853.083867 0 .310307.117413.519974.259987.598917.405634 1.271228.690513 1.979249.838665.461265.075479.628999.058706 1.350252-.134186.335295-.095539.677324-.165625 1.02317-.209667.184506 0 .209668.033546.209668.30192 0 .176121-.033547.276758-.083869.243212-.041933-.025158-.083866-.025158-.092252.016775l-.02516.259985c-.016773.109027-.226441.394172-.469652.628997-.243212.243216-.419333.369015-.385786.285149.050319-.142574.033546-.142574-.226441.016771-.469652.293534-.645771.318695-1.442503.201279z"/><path d="m21.931 4.8567c-0.93092-0.46126-1.107-1.8115-0.26837-2.4405 0.26837-0.20128 0.97285-0.45288 1.1741-0.27676 0.20966 0.21805 0.15096 0.33547 0.67093 0.3103 0-0.016771 0.40256 0.29353 0.43611 0.59545 0.21435 0.56054 0.061472 1.1952-0.3846 1.5966-0.44607 0.40146-1.0933 0.48687-1.6282 0.21487z"/><path d="m15.909 5.7792c-0.46965-0.083868-1.3167-0.46127-1.8702-0.84705-0.32708-0.22644-0.41933-0.2516-0.54513-0.16773-0.33547 0.20128-0.13419-0.083866 0.36901-0.53674 0.68013-0.63588 1.5368-1.051 2.4573-1.1909 1.5012-0.1258 2.4321 0.77157 2.6166 2.038 0.041933 0.27676-0.16773 0.95608-0.33547 1.0567-0.15935 0.10064-0.13419-0.05032-0.13419-0.10064 0-0.041933 0.10064-0.20966 0.058707-0.14257-0.067091 0.10064 0.092254-0.033547 0.092254-0.20128v-0.21805l-0.76318 0.19289c-0.6289 0.19931-1.2974 0.23965-1.9457 0.11741z"/><path d="m23.784544 3.036785c-.234997-.062418-.478777-.085096-.721252-.067091-.595454 0-.670933-.016775-.880599-.226442-.125801-.134184-.310308-.234825-.402559-.234825-.251598 0-.033548-.218052.343851-.343853.353512-.139559.751169-.111815 1.081881.075479.377399.201283.603836.427721.654157.67932.033547.192894.025158.209667-.075479.117412z"/><path d="m18.551273 13.830406c-.117782-.111475-.211908-.245531-.27676-.394171-.067093-.17612-.486425.033545-.587066.117413-.109024.092253.259986-.159348.259986-.360626 0-.192892.167735-.427719.771573-1.073492 1.048332-1.123812 1.501211-1.47605 1.912157-1.47605.293533 0 .318693.016772.369012.318692.1258.771572-.033546 1.85345-.318693 2.138597-.067093.058706-.100641.209665-.075479.318693.033546.184506-.008387.234825-.32708.360625-.201281.083866-.620613.167732-.947691.192893-.519972.033547-.612226.016774-.779959-.142574z"/><path d="m20.346016 13.645901c.041935-.058707.016773-.075482-.07548-.041933-.083866.033546-.117412.016773-.100639-.05032.02516-.058706.058706-.201281.07548-.335466.025159-.125801.100639-.285147.167732-.360627.27676-.276758.503198-1.459278.293533-1.593464-.05032-.025159-.075479-.125801-.05032-.209667.02516-.092252.008387-.159345-.025159-.159345-.150961 0-.922531.687706-1.660557 1.476051l-.771572.830278v-.30192c0-.343853.125799-.494812.394172-.494812.150959 0 .192892-.041933.192892-.234827 0-.167732.117413-.352239.444495-.670932.243211-.243212.461265-.436104.486425-.436104.025158 0 .218052-.159348.427719-.35224.827338-.757345 1.87175-1.235542 2.985647-1.367025.561905-.058706.60384-.05032.805119.150959.243212.243215.343853.55352.268373.847053-.197633.313824-.447198.591751-.738027.821892-.535639.478281-1.061318.967608-1.576689 1.467663-.362087.373964-.767513.703375-1.207678.981239-.385786.159346-.410946.159346-.335466.033547z"/><path d="m15.859 14.258c-0.34385-0.092254-0.67932-0.60384-0.7548-1.1322-0.094829-1.063 0.21352-2.1227 0.86382-2.9689 0.45288-0.52836 2.1805-1.3586 3.4134-1.6438 1.7947-0.41095 3.4218-0.15096 4.294 0.6877 0.3774 0.36063 0.56191 0.67932 0.56191 0.97285 0 0.21805-0.19289 0.46965-0.36063 0.46965-0.058707-0.008388-0.016774-0.075479 0.092252-0.15935 0.22644-0.20128 0.23483-0.42772 0.016774-0.67932-0.13419-0.15934-0.24321-0.19289-0.629-0.18451-1.3251 0.008389-2.9353 1.0399-4.5875 2.9269-0.82189 0.93092-1.5264 1.4844-2.147 1.6689-0.41095 0.1258-0.46127 0.1258-0.76318 0.041933z"/></svg>